<svg xmlns="http://www.w3.org/2000/svg" viewBox="0 0 100 100"><defs/><linearGradient gradientUnits="userSpaceOnUse" id="a" x1="49.986" x2="49.986" y1="5.028" y2="94.998"><stop offset="0" stop-color="#19e6ff"/><stop offset="1" stop-color="#1e51ee"/></linearGradient><path d="M63.6 5c9 0 13.5 0 18.4 1.5a18.92 18.92 0 0111.4 11.4C95 22.8 95 27.4 95 36.4v27.2c0 9 0 13.5-1.5 18.4a18.92 18.92 0 01-11.4 11.4c-5 1.6-9.5 1.6-18.5 1.6H36.4c-9 0-13.5 0-18.4-1.5-5.4-2-9.5-6.1-11.5-11.5C5 77.2 5 72.7 5 63.6V36.4c0-9 0-13.5 1.5-18.4 2-5.3 6.1-9.5 11.5-11.4C22.8 5 27.3 5 36.4 5h27.2z" fill="url(#a)"/><path d="M25.3 68.3c.1-.2.3-.3.5-.4.8-.2 1.6-.4 2.4-.4 2.2 0 4.2.8 5.8 2.2.2.2.2.5.1.7l-4.1 7c-.8 1.4-2.3 2.2-3.8 2.2-.9 0-1.8-.3-2.6-.9-1.8-1.3-2.2-3.9-1.1-5.8l2.8-4.6zm53.3-10.7c2.3 0 4.3 1.7 4.5 3.9.2 2.6-1.8 4.8-4.3 4.8h-5.3l3.9 6.7c1.1 1.9.7 4.5-1.1 5.8-.8.6-1.7.9-2.6.9-1.5 0-3-.8-3.8-2.2L53.1 48.4c-.1-.1-.1-.2-.1-.4 0-.5-.1-1-.1-1.5 0-3.5.8-7 2.4-9.8.2-.3.7-.3.9 0l12.2 20.8h10.2zm-23 .2c2.2 1.3 3.6 3.8 3.6 6.6 0 .6-.1 1.1-.2 1.7 0 .1-.2.2-.3.2H21.4c-2.5 0-4.6-2.2-4.3-4.8.2-2.3 2.2-3.9 4.5-3.9h9.9L45 34.4l-3.7-6.3c-1.3-2.2-.4-5.1 2-6.1 2.1-.9 4.5 0 5.7 1.9l1.1 1.9 1.2-2c1.3-2.2 4.2-2.9 6.3-1.4 1.9 1.3 2.3 3.9 1.1 5.9L41.5 57.6h13.4c.3 0 .5.1.7.2z" fill="#fff"/></svg>