<svg xmlns="http://www.w3.org/2000/svg" viewBox="5 5 54 54"><circle cx="32" cy="32" fill="#fff" r="26.5"/><path d="M58 32A26 26 0 0039.1 7a26.6 26.6 0 00-5.1-.5 26.5 26.5 0 00-17.8 46.1A25.9 25.9 0 0032 58a26 26 0 0026-26z" fill="#ffe57f"/><path d="M42.9 7.8A26.5 26.5 0 0130 57.5a26.4 26.4 0 01-10.9-2.3A26.4 26.4 0 0032 58.5 26.5 26.5 0 0042.9 7.8z" fill="#ffd740"/><path d="M32 59a27 27 0 110-54 27 27 0 010 54zm0-53a26 26 0 100 52 26 26 0 000-52z" fill="#37474f"/><circle cx="32" cy="32" fill="#ffd740" r="22.5"/><path d="M11.5 33A22.5 22.5 0 0143 12.4a22.4 22.4 0 00-11-2.9 22.5 22.5 0 00-9 43.1A22.5 22.5 0 0111.5 33z" fill="#ffca28"/><path d="M41 11.4a22.5 22.5 0 01-20 40.2 22.4 22.4 0 0011 2.9 22.5 22.5 0 009-43.1z" fill="#ffe57f"/><path d="M32 55a23 23 0 110-46 23 23 0 010 46zm0-45a22 22 0 100 44 22 22 0 000-44z" fill="#37474f"/><path d="M44.3 28.2c.5-3.6-2.2-5.5-6-6.8l1.2-4.8-3-.8-1.1 4.8L33 20l1.2-4.8-3-.7-1.1 4.9-6-1.5-.8 3.1 2.2.6c1.2.3 1.4 1 1.3 1.7l-3.3 13.3c-.1.4-.5.9-1.3.7l-2.2-.5-1.4 3.3 5.9 1.5-1.2 5 3 .7 1.1-4.9 2.4.6-1.2 4.9 3 .7 1.2-4.9c5 1 8.8.6 10.4-4 1.3-3.6 0-5.8-2.7-7.1 2-.5 3.4-1.8 3.8-4.4zm-6.8 9.5c-1 3.7-7 1.7-9.1 1.2l1.6-6.5c2 .5 8.5 1.5 7.5 5.3zm1-9.5c-1 3.3-6 1.6-7.7 1.2l1.4-6c1.7.5 7 1.3 6.2 4.8z" fill="#fff"/><path d="M33.7 43.5c1.5.3 2.7.4 3.8.4 3.2 0 5.1-1.3 6.1-4 1-3.2.3-5.2-2.5-6.6l-1.2-.7 1.3-.3c2-.4 3.1-1.7 3.4-4 .5-2.8-1.3-4.7-5.6-6.2l-.4-.1 1.2-4.8-2-.5-1.2 4.7-.4-.1-2.4-.6h-.5l1.2-4.8-2-.5-1.2 4.8-.5-.1-5.5-1.4-.5 2.2 1.7.4c1.1.3 1.8 1.1 1.7 2.3L25 37c-.4.9-1 1.2-2 1l-1.7-.4-1 2.5 5.8 1.4-1.2 5 2 .4 1.2-4.8.5.1 2.3.6.5.1-1.2 4.9 2 .5 1.2-5 .4.2zm-1-20.4l.5.2h.6c1.7.5 4.6 1 5.7 2.9.4.7.5 1.5.3 2.3-.3 1.1-1.2 2.4-3.7 2.4-1.5 0-3-.4-4-.6l-1-.3 1.7-6.9zm-3 16.7l-1-.3 1.8-7.5.5.1.7.2c2.1.5 5.6 1.2 6.8 3.3.5.7.6 1.6.4 2.5-.3 1.1-1.3 2.5-4.2 2.5-1.8 0-3.8-.5-5-.8z" fill="#ffe57f"/><path d="M32 49.2l-4-1 1.2-4.8-1.4-.3-1.2 4.8-4-1L24 42l-6-1.5 1.8-4.3h.4l1.8.5.4.1h.2c.1 0 .4 0 .6-.4l3.3-13.2c0-.6-.3-1-1-1.1L25 22l-1.8-.5h-.5l1-4.2 6 1.5 1.2-4.9 4 1-1.3 4.7 1.4.3 1.2-4.7 4 1-1.3 4.9c3 1 6.5 3 5.9 7.2-.4 2.2-1.4 3.6-3.1 4.4 2.4 1.7 3 4 2 7.2-1.2 3.2-3.4 4.7-7 4.7-1 0-2.2 0-3.6-.3l-1.2 5zm-2.8-1.7l2 .5 1.2-4.9.5.1c1.4.3 2.7.4 3.7.4 3.3 0 5.1-1.2 6.1-4 1.1-3.1.3-5.1-2.4-6.6l-1.3-.6 1.4-.3c2-.5 3-1.8 3.4-4 .4-2.8-1.3-4.7-5.6-6.2l-.5-.2L39 17l-2-.5-1.1 4.8-.5-.2-2.4-.5-.5-.1 1.2-4.8-2-.5-1.2 4.9-.4-.2-5.5-1.3-.6 2.2 1.7.4c1.2.3 1.8 1.1 1.7 2.2L24 36.7c-.3.9-1 1.3-1.9 1l-1.8-.3-1 2.4 5.8 1.5-1.2 4.9 2 .5 1.2-4.9.5.2 2.3.6h.5l-1.2 5zm4.7-7.1c-1.8 0-3.9-.6-5-.9l-1.1-.3 1.9-7.4h.4l.8.2c2 .5 5.5 1.3 6.7 3.3.5.8.6 1.6.4 2.5-.3 1.2-1.3 2.6-4.1 2.6zM29 38.5h.1c1.2.3 3 .9 4.8.9 1.8 0 2.8-.6 3.1-1.8.2-.7.1-1.2-.2-1.8-1-1.6-4.4-2.4-6.2-2.8h-.2L29 38.5zm6.2-7.8c-1.5 0-3-.4-4-.7l-1-.2 1.7-7 .5.2.6.1c1.7.4 4.5 1 5.6 2.8.4.7.5 1.5.3 2.4-.3 1-1.1 2.4-3.7 2.4zM31.4 29c1 .3 2.4.7 3.8.7 2 0 2.6-1 2.7-1.7a2 2 0 00-.2-1.6c-.8-1.4-3.5-2-5-2.3l-1.3 5z" fill="#37474f"/></svg>