<svg xmlns="http://www.w3.org/2000/svg" xmlns:xlink="http://www.w3.org/1999/xlink" viewBox="0 0 64 64"><circle cx="32" cy="32" fill="#77b3d4" r="32"/><path d="M12 25v25a4 4 0 004 4h32a4 4 0 004-4V25H12z" fill="#231f20" opacity=".2"/><path d="M12 23v25a4 4 0 004 4h32a4 4 0 004-4V23H12z" fill="#fff"/><path d="M48 14H16a4 4 0 00-4 4v7h40v-7a4 4 0 00-4-4z" fill="#231f20" opacity=".2"/><path d="M48 12H16a4 4 0 00-4 4v7h40v-7a4 4 0 00-4-4z" fill="#c75c5c"/><path d="M32 48a2 2 0 01-2-2c0-5.515 1.757-9.455 3.491-12H27a2 2 0 110-4h11a2 2 0 011.156 3.632C38.957 33.778 34 37.493 34 46a2 2 0 01-2 2z" fill="#4f5d73"/><g fill="#231f20"><use xlink:href="#B" opacity=".2"/><use xlink:href="#B" x="25" opacity=".2"/></g><g fill="#e0e0d1"><use xlink:href="#B" y="-2"/><use xlink:href="#B" x="25" y="-2"/></g><defs><path id="B" d="M20 21a2 2 0 01-2-2v-7a2 2 0 012-2 2 2 0 012 2v7a2 2 0 01-2 2z"/></defs></svg>