<svg xmlns="http://www.w3.org/2000/svg" viewBox="5 5 54 54"><circle cx="32" cy="32" fill="#fff" r="26.5"/><path fill="#ffca28" d="M11.5 33A22.5 22.5 0 0143 12.4a22.4 22.4 0 00-11-2.9 22.5 22.5 0 00-9 43.1A22.5 22.5 0 0111.5 33z"/><path fill="#ffe57f" d="M58 32A26 26 0 0039.1 7a26.5 26.5 0 00-23 45.6A25.9 25.9 0 0032 58a26 26 0 0026-26z"/><g fill="#ffd740"><path d="M42.9 7.8A26.5 26.5 0 0130 57.5a26.4 26.4 0 01-10.9-2.3A26.5 26.5 0 1042.8 7.9z"/><circle cx="32" cy="32" r="22.5"/></g><g fill="#fff"><path d="M21.4 32.2L32 14.6l10.6 17.6L32 38.4z"/><path d="M22.5 36.1l9.5 5.6 9.5-5.6L32 49.6z"/></g><g fill="#ffe57f"><path d="M41 11.4a22.5 22.5 0 01-20 40.2 22.4 22.4 0 0011 2.9 22.5 22.5 0 009-43.1z"/><path d="M42 32L32 15.5 23 33l9 4.9z"/><path d="M39.8 37.7L32 42.3l-.5-.3-6.3-4.3 6.8 11z"/></g><g fill="#37474f"><path d="M32 15.5L42 32l-10 5.9L22 32l10-16.5zm0-2L20.7 32.4 32 39l11.3-6.7L32 13.6z"/><path d="M32 28.7l9 3.8-9 5.4-9-5.4 9-3.8zm0-1.1l-11.3 4.7L32 39l11.3-6.7L32 27.6z"/><path d="M39.8 37.7l-7.8 11-7.8-11 7.8 4.6 7.8-4.6zm3.5-3.2L32 41.2l-11.3-6.7 11.3 16 11.3-16zm-11.8-19h1v22.8h-1z"/><path d="M31.5 41.3h1v8h-1z"/><path d="M32 55a23 23 0 110-46 23 23 0 010 46zm0-45a22 22 0 100 44 22 22 0 000-44z"/><path d="M32 59a27 27 0 110-54 27 27 0 010 54zm0-53a26 26 0 100 52 26 26 0 000-52z"/></g></svg>