<svg xmlns="http://www.w3.org/2000/svg" viewBox="0 0 512 512"><path d="M258.2 6.7a248.1 250.4 0 01247 251.2 248.1 250.4 0 01-248.7 249.5A248.1 250.4 0 019 257 248.1 250.4 0 01256.8 6.7" fill="#fff" fill-rule="evenodd" stroke="#ff04ff" stroke-width=".8" stroke-linecap="round"/><path d="M256.6 507.8A249.7 249.7 0 018.5 254.7C9.6 118.1 119.9 4.6 260.2 6.3 397.3 7.9 507.1 121.1 505.5 260a249.5 249.5 0 01-248.9 247.8zm-35.4-130.3l-3.1-.5c-19.1-2.7-37-8.4-53-19.8a78 78 0 01-31.9-48.7c-4.4-20.5-2.7-41.2.5-61.7 2.2-14.1 7-27.4 18-37.5 1.6-1.5 1.5-2.7.7-4.7a77.8 77.8 0 01-.3-50c1-3.3 2.6-4.7 6.1-3.4 4.2 1.5 8.5 2.8 12.4 5.1a87.3 87.3 0 0126.1 24.9c1.8 2.4 3 2.8 5.5 1.1 6.2-4.3 13.5-5.6 20.6-6.9 17.2-3.2 34.5-2.6 51.8-1.8a98 98 0 0129.7 5.9c3 1.1 5.7 5 8.5 3.5 2.8-1.4 4.5-5.2 6.7-7.8a69.6 69.6 0 0132.5-23.7c4.4-1.4 6.4-.7 7.9 4 5 16.3 5.7 32.4-.6 48.4-1 2.5-.8 4.3 1.3 6.2a54.4 54.4 0 0115.6 28.5c4.3 18.6 5.4 37.6 4.2 56.6a80.2 80.2 0 01-19.3 48.8c-16.4 18.8-37.8 28.1-61.9 32.2l-8.7 1.5a64.3 64.3 0 0110.6 35v71c15.2-1.5 43.6-11.6 63.4-22.4a232 232 0 00115.4-257.1A228.8 228.8 0 00208.6 31 230.8 230.8 0 0030.4 289.9a226.9 226.9 0 0077.4 142.4c28.5 25 61.5 41.7 98.5 50.3 2.9.7 4.2.5 4.1-3-.2-9.8-.2-19.7 0-29.5 0-3.3-.6-4.3-4.2-3.6a78 78 0 01-19.9 1.6 61 61 0 01-50.5-27.5c-4.1-6.1-6.4-13.2-10.3-19.3-6.9-10.7-13-22-24.5-28.9-1.5-.9-3.3-2.3-2.4-4.4.8-2 3-1.7 4.8-1.9 12.8-1 23.3 3.8 32 13 4.6 4.9 7.5 11 11.5 16.3a53.8 53.8 0 0059.5 17.8c3-1.1 3.9-2.6 4.3-5.7a55.6 55.6 0 0110.5-30z" fill="#120604"/></svg>