<svg xmlns="http://www.w3.org/2000/svg" viewBox="0 0 508.3 508.4"><defs><mask height="716.8" id="a" maskUnits="userSpaceOnUse" width="1221.8" x="-121.5" y="-122.6"><path d="M-119.7-120.8h1221.8V596H-119.7v-716.8z" fill="#fff" transform="translate(-1.8 -1.8)"/></mask></defs><path d="M255.2.4a254 254 0 01-1.7 508 254 254 0 01.3-508" fill="#feffff" fill-rule="evenodd"/><g mask="url(#a)" transform="translate(3.6 16.8)"><path d="M400.3 257.5L350.1 103a5.7 5.7 0 00-10.9 0l-33.4 102.7H195L161.7 103a5.7 5.7 0 00-11 0l-50.1 154.5a11.5 11.5 0 004.1 12.8l145.7 105.9 145.8-106a11.5 11.5 0 004.1-12.7" fill="#fc6d26"/><path d="M250.4 376.2l55.4-170.5H195l55.4 170.5z" fill="#e24329"/><path d="M250.4 376.2L195 205.7h-77.6l133 170.5z" fill="#fc6d26"/><path d="M117.4 205.7l-16.8 51.8a11.5 11.5 0 004.1 12.8l145.7 105.9-133-170.5z" fill="#fca326"/><path d="M117.4 205.7H195L161.7 103a5.7 5.7 0 00-11 0z" fill="#e24329"/><path d="M250.4 376.2l55.4-170.5h77.7l-133 170.5z" fill="#fc6d26"/><path d="M383.5 205.7l16.8 51.8a11.5 11.5 0 01-4.2 12.8L250.4 376.2l133-170.5z" fill="#fca326"/><path d="M383.5 205.7h-77.7L339.2 103a5.7 5.7 0 0111 0l33.3 102.7z" fill="#e24329"/></g></svg>