<svg xmlns="http://www.w3.org/2000/svg" viewBox="0 0 128 128"><circle cx="64" cy="64" r="64" fill="#267cb5"/><path d="M64 24a40 40 0 100 80 40 40 0 000-80zm2 24c4.7-.1 9.3-.7 13.6-1.7A63 63 0 0182 62H66V48zm0-4V28.2c5 1.2 9.4 6.5 12.3 14.2-3.9.9-8 1.5-12.3 1.6zm-4-15.8V44c-4.3-.1-8.4-.6-12.3-1.5C52.6 34.8 57 29.4 62 28.2zM62 48v14H46c.2-5.7 1-11 2.4-15.7 4.3 1 8.9 1.5 13.6 1.7zM42 62H28c.4-7.7 3.2-14.7 7.7-20.3 2.6 1.4 5.5 2.6 8.7 3.6A75.4 75.4 0 0042 62zm0 4c.2 6.1 1 11.7 2.5 16.8-3.2 1-6.1 2.2-8.7 3.6a35.7 35.7 0 01-7.7-20.3H42V66zm4 0h16v14c-4.7.1-9.3.7-13.6 1.7A63 63 0 0146 66zm16 18v15.7c-5-1.2-9.4-6.5-12.3-14.2A69 69 0 0162 84zm4 15.8V84c4.3.1 8.4.6 12.3 1.5C75.4 93.2 71 98.6 66 99.8zM66 80V66h16a63 63 0 01-2.4 15.7c-4.3-1-8.9-1.5-13.6-1.7zm20-14h14a35.2 35.2 0 01-7.7 20.3 49.4 49.4 0 00-8.7-3.6c1.3-5 2.2-10.6 2.4-16.7zm0-4c-.2-6.1-1-11.7-2.5-16.8 3.2-1 6.1-2.2 8.7-3.6a35.7 35.7 0 017.7 20.3L86 62zm3.5-23.4a47 47 0 01-7.2 2.9A35.4 35.4 0 0075.7 30c5.2 1.8 9.9 4.8 13.8 8.6zM52.3 30a37 37 0 00-6.6 11.5c-2.6-.8-5-1.7-7.2-2.8 3.9-4 8.6-6.9 13.8-8.7zM38.5 89.4a47 47 0 017.2-2.9c1.7 4.6 3.9 8.5 6.6 11.5a37.4 37.4 0 01-13.8-8.6zM75.7 98c2.6-2.9 4.9-6.9 6.6-11.5 2.6.8 5 1.7 7.2 2.9A37.4 37.4 0 0175.7 98z" fill="#fff"/></svg>