<svg xmlns="http://www.w3.org/2000/svg" viewBox="0 0 56.693 56.693"><path d="M28.381.535a27.71 27.71 0 01-.184 55.42 27.71 27.71 0 01.03-55.42" fill="#fff" fill-rule="evenodd"/><path d="M38.298 20.317L18.237 9.305a3.751 3.751 0 00-3.151-.236l17.091 17.523z" fill="#00de76"/><path d="M45.78 24.423l-5.779-3.172-6.517 6.681 6.517 6.681 5.779-3.172c2.734-1.5 2.734-5.519 0-7.019z" fill="#ffc700"/><path d="M13.521 10.146a3.984 3.984 0 00-.999 2.669v30.236a3.98 3.98 0 00.999 2.669L30.87 27.933z" fill="#00b7ff"/><path d="M15.086 46.796a3.744 3.744 0 003.151-.236l20.061-11.012-6.121-6.276z" fill="#fa3746"/></svg>