<svg xmlns="http://www.w3.org/2000/svg" viewBox="0 0 512 512"><path d="M257.2 7.5a248.5 248.5 0 01-1.7 497 248.5 248.5 0 01.3-497" fill="#fff" fill-rule="evenodd" stroke="#ff04ff" stroke-width=".8" stroke-linecap="round"/><linearGradient gradientUnits="userSpaceOnUse" id="a" x1="9" x2="577.9" y1="-79" y2="557.7"><stop offset="0" stop-color="#517fa6"/><stop offset="1" stop-color="#426699"/></linearGradient><path d="M271 214.4v-.6l-.3.6z" fill="url(#a)"/><linearGradient id="b" x1="-20.1" x2="548.8" y1="-53" y2="583.7" href="#a"><stop offset="0" stop-color="#517fa6"/><stop offset="1" stop-color="#426699"/></linearGradient><path d="M256 7.1a248.9 248.9 0 100 497.8 248.9 248.9 0 000-497.8zm-68.5 345.7h-53.9v-162h53.9zm-27-184h-.3c-18 0-29.8-12.5-29.8-28 0-15.9 12-28 30.5-28 18.4 0 29.7 12.1 30.1 28 0 15.5-11.7 28-30.4 28zm221 184h-53.8v-86.6c0-21.8-7.8-36.6-27.2-36.6-14.9 0-23.8 10-27.7 19.7a36.8 36.8 0 00-1.7 13v90.5h-53.9v-162h53.9v23c7.1-11 19.9-26.7 48.5-26.7 35.4 0 62 23.1 62 72.9v92.8z" fill="url(#b)"/></svg>