<svg xmlns="http://www.w3.org/2000/svg" viewBox="0 0 100 100" ><linearGradient gradientUnits="userSpaceOnUse" id="A" x1="49.998" x2="49.998" y1="5.028" y2="94.998"><stop offset="0" stop-color="#1e51ee"/><stop offset="1" stop-color="#19e6ff"/></linearGradient><path d="M63.6 5c9 0 13.5 0 18.4 1.5a18.92 18.92 0 0 1 11.4 11.4C95 22.8 95 27.4 95 36.4v27.2c0 9 0 13.5-1.5 18.4a18.92 18.92 0 0 1-11.4 11.4C77.2 95 72.6 95 63.6 95H36.4c-9 0-13.5 0-18.4-1.5-5.3-2-9.5-6.1-11.4-11.5C5 77.2 5 72.7 5 63.6V36.4c0-9 0-13.5 1.5-18.4 2-5.3 6.2-9.5 11.5-11.4C22.8 5 27.4 5 36.4 5h27.2z" fill="url(#A)"/><path d="M78.9 69.5c-.1 0-.3.1-.4.1h-57c-.1 0-.3 0-.4-.1h0l17.8-17.8 3.8 3.9c4.1 4.2 10.6 4.2 14.7 0l3.8-3.9 17.7 17.8zm1.1-1.9V32.3c0-.2 0-.4-.1-.5-.1.2-17.7 18.4-17.7 18.4L80 68v-.4zm-60 .1V32.5c0-.2 0-.4.1-.5.1.2 17.7 18.4 17.7 18.4L20.1 68.1c-.1-.1-.1-.3-.1-.4h0zm59-37.1L56.3 53.8c-3.5 3.5-9.1 3.5-12.5 0L21.1 30.6c-.1-.1 57.9 0 57.9 0h0z" fill="#fff"/></svg>