<svg xmlns="http://www.w3.org/2000/svg" xmlns:xlink="http://www.w3.org/1999/xlink" viewBox="0 0 64 64"><circle cx="32" cy="32" fill="#77b3d4" r="32"/><use xlink:href="#B" fill="#231f20" opacity=".2"/><use xlink:href="#B" y="-2" fill="#fff"/><defs ><path id="B" d="M28.962 25.343c-.417-4.794-5.418-7.146-5.63-7.242-.199-.094-.421-.122-.635-.085-5.774.958-6.642 4.318-6.677 4.458a1.08 1.08 0 0 0 .022.589c6.886 21.366 21.198 25.327 25.903 26.63l.888.255c.11.037.223.052.336.052a1.09 1.09 0 0 0 .452-.098c.144-.065 3.544-1.667 4.375-6.891a1.09 1.09 0 0 0-.105-.668c-.074-.144-1.853-3.528-6.784-4.724-.345-.089-.698.002-.964.229-1.556 1.329-3.705 2.745-4.632 2.891-6.217-3.04-9.688-8.872-9.819-9.978-.076-.622 1.348-2.806 2.987-4.582.207-.225.312-.53.283-.836z"/></defs></svg>