<svg xmlns="http://www.w3.org/2000/svg" viewBox="0 0 64 64"><circle cx="32" cy="32" fill="#e0995e" r="32"/><g opacity=".2" fill="#231f20"><path d="M48 26v-8H16v32h32z"/><path d="M48 14H16a4 4 0 00-4 4v32a4 4 0 004 4h32a4 4 0 004-4V18a4 4 0 00-4-4z"/></g><path d="M16 50c-1.103 0-2-.897-2-2V16c0-1.103.897-2 2-2h32c1.103 0 2 .897 2 2v32c0 1.103-.897 2-2 2H16z" fill="#77b3d4"/><g fill="#fff"><path d="M48 16v32H16V16h32m0-4H16a4 4 0 00-4 4v32a4 4 0 004 4h32a4 4 0 004-4V16a4 4 0 00-4-4z"/><path d="M16 44h32v4H16z"/></g><path d="M13.99 44h34.896v-2.921s-1.706-2.977-3.286-4.843c-1.176-1.388-2.932-1.78-4.464-.076l-2.752 2.643-5.999-7.629c-2.234-2.841-5.89-2.841-8.124 0L13.99 44z" fill="#4f5d73"/><circle cx="40" cy="24" fill="#f5cf87" r="3"/><path d="M48 16v32H16V16h32m0-4H16a4 4 0 00-4 4v32a4 4 0 004 4h32a4 4 0 004-4V16a4 4 0 00-4-4z" fill="#fff"/></svg>