<svg xmlns="http://www.w3.org/2000/svg" viewBox="0 0 512 512"><linearGradient gradientUnits="userSpaceOnUse" id="a" x1="80" x2="432" y1="80" y2="432"><stop offset="0" stop-color="#dd272d"/><stop offset=".5" stop-color="#ca2429"/><stop offset="1" stop-color="#b22025"/></linearGradient><path d="M257.2 7.5a248.5 248.5 0 01-1.7 497 248.5 248.5 0 01.3-497" fill="#fff" fill-rule="evenodd"/><path d="M256 7.1a248.9 248.9 0 100 497.8 248.9 248.9 0 000-497.8zm26.4 325c-21.2 0-41.2-11.5-48-24.5l-13.8 54c-8.5 30.8-33.5 61.6-35.4 64.2-1.4 1.7-4.3 1.2-4.7-1.2-.5-3.9-6.9-42.8.6-74.5l25.3-107s-6.3-12.5-6.3-31c0-29 16.9-50.8 37.8-50.8 17.9 0 26.5 13.4 26.5 29.5 0 18-11.4 44.7-17.3 69.6-5 20.8 10.4 37.8 31 37.8 37.1 0 62.1-47.7 62.1-104.3 0-43-28.9-75.2-81.6-75.2-59.5 0-96.6 44.4-96.6 94 0 17 5 29.1 13 38.4 3.6 4.3 4.1 6 2.8 11l-4 15.7c-1.3 5-5.3 6.8-9.8 5-27.4-11.3-40.2-41.3-40.2-75 0-55.8 47-122.6 140.2-122.6 75 0 124.2 54.2 124.2 112.4 0 77-42.8 134.5-105.8 134.5z" fill="url(#a)"/></svg>