<svg xmlns="http://www.w3.org/2000/svg" viewBox="0 0 128 128"><circle cx="64" cy="64" fill="#f7ec1e" r="64"/><path d="M64.5 104.4h-1c-5.1 0-8.4-2.3-11.6-4.5-2.2-1.6-4.2-3-6.7-3.4a21.6 21.6 0 00-3.5-.3c-2 0-3.7.3-4.9.5L35 97c-.5 0-1-.1-1.2-1l-.5-2c-.4-1.6-.6-2.6-1.3-2.7-8.1-1.2-10.4-3-11-4.2v-.5a1 1 0 01.7-1c12.4-2 18-14.7 18.2-15.2.8-1.6 1-3 .5-4-.8-2-3.6-3-5.5-3.5l-1.2-.5c-3.7-1.4-4-2.9-3.8-3.7.2-1.3 2-2.2 3.3-2.2l1 .2c1.7.8 3.2 1.2 4.5 1.2 1.8 0 2.5-.7 2.6-.8l-.1-2.7c-.4-5.9-.9-13.2 1-17.3a22.5 22.5 0 0121-13.5h1.7c3.5 0 15.3 1 20.9 13.4a43.6 43.6 0 011 17.4v.3l-.1 2.4s.8.7 2.4.8a11 11 0 004.2-1.2c.4-.2 1-.2 1.3-.2.5 0 1 0 1.5.3 1.2.4 2 1.3 2 2.2 0 .9-.6 2.2-3.8 3.4a20.7 20.7 0 01-1.2.5c-1.9.5-4.6 1.4-5.5 3.4-.5 1.1-.3 2.5.4 4 .3.6 5.9 13.3 18.3 15.4.5 0 .8.5.8 1a1.6 1.6 0 01-.1.4c-.6 1.2-2.9 3-11 4.2-.6.1-.9 1-1.3 2.8l-.5 2c-.1.5-.5.8-1.1.8H93c-.5 0-1 0-1.8-.2a24.1 24.1 0 00-8.4-.2c-2.4.4-4.5 1.8-6.7 3.4-3.2 2.2-6.4 4.5-11.6 4.5" fill="#fff"/><path d="M64.9 24.5c3.3 0 14.7.9 20 13 1.8 3.9 1.4 11 1 16.9l-.1 2.6v.4l.2.3s1 1 3 1.1h.1a12 12 0 004.6-1.2c.2-.2.5-.2.9-.2s.8 0 1.1.2c1 .3 1.5 1 1.6 1.4 0 .3-.3 1.4-3.3 2.6l-1.2.4c-2 .6-5 1.6-6 4-.6 1.3-.5 3 .4 4.7.4.9 6.1 13.8 19 15.9a.6.6 0 010 .2c-.3.5-1.7 2.3-10.3 3.6-1.4.2-1.7 1.7-2 3.5l-.5 1.9c-.1.2-.1.2-.3.2H93c-.4 0-1 0-1.7-.2-1.2-.2-2.9-.5-5-.5a22.4 22.4 0 00-3.7.3c-2.6.4-4.8 2-7 3.5-3 2.2-6.2 4.4-11 4.4a12.7 12.7 0 01-.7 0 4.2 4.2 0 01-.4 0c-4.9 0-8-2.2-11-4.4a17.5 17.5 0 00-7.1-3.5 22.4 22.4 0 00-3.7-.3c-2.1 0-3.8.3-5 .5l-1.7.3c-.3 0-.3 0-.4-.3l-.4-1.9c-.4-1.8-.7-3.3-2-3.5-8.7-1.3-10.1-3.1-10.3-3.6a.6.6 0 010-.2c12.8-2.1 18.5-15 18.9-15.9.9-1.8 1-3.4.4-4.7-1-2.4-4-3.4-6-4a18.3 18.3 0 01-1.2-.4c-2.6-1-3.4-2-3.2-2.7 0-.7 1.3-1.5 2.4-1.5.3 0 .5 0 .7.2 1.7.8 3.4 1.2 4.8 1.2 2.2 0 3.2-1 3.3-1.1l.3-.3V57l-.2-2.6c-.4-5.8-.8-13 1-17 5.3-12 16.7-13 20-13H65m0-1.8H63c-3.6 0-16 1-21.7 14-2 4.5-1.5 11.9-1.1 17.9l.1 2.1c-.3.2-.9.4-1.7.4-1.2 0-2.5-.4-4-1-.5-.3-1-.4-1.5-.4-1.8 0-3.9 1.2-4.2 3-.3 1.2.3 3 4.4 4.7l1.2.4c1.7.6 4.3 1.4 5 3 .3.8.2 2-.5 3.2v.1c-.2.5-5.6 12.8-17.6 14.8-.9.1-1.5 1-1.5 1.9 0 .3 0 .5.2.8.9 2.1 4.7 3.6 11.6 4.7.2.3.4 1.4.6 2l.5 2.2c.2.7.7 1.5 2.1 1.5l2-.3a23.2 23.2 0 018-.2c2.3.3 4.2 1.7 6.4 3.2a19.9 19.9 0 0013.1 4.8c5.4 0 9-2.6 12.1-4.8 2.2-1.5 4.1-2.9 6.3-3.2a20.6 20.6 0 013.4-.3c1.9 0 3.4.2 4.7.5.8.2 1.5.2 2 .2a2 2 0 002.1-1.5l.5-2c.1-.6.4-1.8.6-2.1 7-1 10.7-2.6 11.6-4.7l.2-.8c0-1-.6-1.8-1.5-2C94.5 82.9 89 70.6 88.9 70c-.7-1.4-.8-2.5-.5-3.3.7-1.6 3.3-2.4 5-3l1.2-.4c3-1.2 4.5-2.6 4.5-4.3 0-1.3-1-2.5-2.7-3a4.9 4.9 0 00-1.8-.4c-.5 0-1.1 0-1.7.3-1.4.7-2.7 1-3.8 1-.7 0-1.2-.1-1.5-.3l.1-2.1a44 44 0 00-1-17.8c-5.9-13-18.2-14-21.8-14z" fill="#040505"/></svg>