<svg xmlns="http://www.w3.org/2000/svg" viewBox="0 0 1080 1080"><g transform="matrix(1.3856 0 0 1.38569 -204.8 -207.7)"><rect y="159.5" x="157.5" width="760" rx="380" height="760" fill="#fffffe" stroke="url(#B)" stroke-width="19.5"/><path d="M694.2 431.4a72.5 72.5 0 01-51.3-21.3 72.8 72.8 0 01-21.3-51.4l.2-4.6v-.9c.2-2 .3-4.4.2-6.7 0-4.3-.8-10-4.7-14-3.8-3.8-9.6-4.8-14-5.2-3.7-.4-7.6-.3-10.6-.3h-2.4a173.3 173.3 0 01-2.4 0c-3 0-6.7 0-10.1.3-4.4.4-9.9 1.5-13.6 5.2-4 4-4.6 9.7-4.7 14 0 2.3 0 4.6.2 6.7v.9l.2 4.6v259.2c0 14.4-4.3 28.4-12.2 40.4a72.6 72.6 0 01-32.6 26.8 72.4 72.4 0 01-42 4.1c-14-2.8-27-9.7-37.1-19.9a72.8 72.8 0 01-19.9-37.2 73 73 0 014.1-42 72.7 72.7 0 0126.8-32.7c12-8 26-12.3 40.3-12.3l4 .1h1.7c2.1.2 4.5.2 6.9.1 4.4-.2 10.2-1 14.1-5s4.7-9.5 4.9-13.9v-6.8l-.1-1.5-.2-4V513c0-3.2 0-7.4-.5-11.3-.5-4.3-1.9-9.4-5.5-13a21 21 0 00-13.2-5.3c-3.2-.3-6.6-.2-9.5-.1h-2.6a134.1 134.1 0 00-124 83 134.9 134.9 0 00-7.7 77.8A134.7 134.7 0 00461 750c26 5.2 53 2.5 77.6-7.7a134.4 134.4 0 0060.3-49.5 134.8 134.8 0 0022.6-74.8v-146a132 132 0 0072.6 21.4c1.4 0 3 0 4.8.2h.6c2 .2 4.3.3 6.5.3 4.3-.1 10-.8 13.9-4.7 3.7-3.7 5-9.3 5.5-13.8.5-4.2.5-8.6.5-11.9v-2.1c0-3.2 0-7.3-.5-11.3-.6-4.3-2-9.5-5.5-13l-3.6 3.4 3.6-3.5a21.5 21.5 0 00-13.5-5.3c-3.3-.3-7-.2-9.9-.2h-2.4z" fill="#000" stroke="url(#A)" stroke-width="7.2"/></g><defs><linearGradient gradientUnits="userSpaceOnUse" id="A" x1="472.7" x2="630.2" y1="467" y2="671.5"><stop offset="0" stop-color="#45cecc"/><stop offset="1" stop-color="#fc4036"/></linearGradient><linearGradient gradientUnits="userSpaceOnUse" id="B" x1="805" x2="166.2" y1="819" y2="96.8"><stop stop-color="#ff3d33"/><stop offset="1" stop-color="#17f2f2"/></linearGradient></defs></svg>