<svg xmlns="http://www.w3.org/2000/svg" viewBox="0 0 1000 1000" ><path d="M500 1000h0C223.9 1000 0 776.1 0 500h0C0 223.9 223.9 0 500 0h0c276.1 0 500 223.9 500 500h0c0 276.1-223.9 500-500 500z" fill="#39475d"/><path d="M672.4 758.1c-19.9 21.3-66.1 35.7-107.5 36.4h-4.5c-139 0-169.1-102.2-169.1-161.8V467h-54.7c-6.3 0-11.5-5.1-11.5-11.5v-78.2c0-8.3 5.2-15.6 13-18.4 71.3-25.1 93.7-87.4 97-134.7.9-12.6 7.5-18.8 18.5-18.8h81.6c6.3 0 11.5 5.1 11.5 11.5v132.5h95.5c6.3 0 11.5 5.1 11.5 11.4v94c0 6.3-5.1 11.5-11.5 11.5h-96v153.2c0 38.5 25.4 49.1 41 49.1 15-.4 29.8-4.9 37.2-7.9 5.5-2.2 10.3-3.7 14.7-2.6 4 1 6.7 3.9 8.5 9.1l25.3 74c2 6 3.7 12.4-.5 16.9z" fill="#fff"/></svg>