<svg xmlns="http://www.w3.org/2000/svg" viewBox="0 0 512 512"><circle cx="256" cy="256" r="256" fill="#fff"/><g fill-rule="evenodd"><path d="M256 512C114.615 512 0 397.385 0 256S114.615 0 256 0s256 114.615 256 256-114.615 256-256 256zm127.552-348.139c-13.072-54.44-103.197-59.099-135.096 45.559 22.084-8.176 43.862-2.907 45.574 6.509 8.179 44.97-45.542 91.118-52.085 91.118-40.896-7.359-7.006-122.922-48.83-161.084C156.77 112.8 81.649 192.25 75.924 209.42s2.396 17.081 11.393 17.899 17.121-17.477 32.554-9.763c35.988 17.988 20.714 144.708 74.872 190.372 40.456 41.609 213.811-139.938 188.809-244.067z" fill="#1ab7ea"/><path d="M436.999 75.012c99.96 99.96 99.96 262.027 0 361.987s-262.027 99.96-361.987 0" opacity=".1"/></g></svg>