<svg xmlns="http://www.w3.org/2000/svg" viewBox="0 0 64 64"><circle cx="32" cy="32" r="32" fill="#ffcb04"/><path d="M52.9 27.9V37h-3.1v-8a2 2 0 00-2.1-2.1H15v6.9l-3.9-5.6.2-1.3a4 4 0 014-3.2h33.3c2.4 0 4.3 1.9 4.3 4.2z" fill="#2e3545"/><path d="M49.3 20.9l-9.3 6H22.6l-.1-.1-1.7-2.7-1.8-2.8c-.3-.5-.2-1.1.3-1.4L40.2 6.6c.5-.3 1.1-.2 1.4.3l1.8 2.8 1.7 2.7 4.5 7.1c.3.5.2 1.1-.3 1.4z" fill="#00a8ea"/><path d="M45.2 12.4L22.6 26.7l-1.7-2.6L43.5 9.8" fill="#fff"/><path d="M49.7 43.6h3.1v6.3a2 2 0 01-2.1 2.1h-1v-8.4z" fill="#2e3545"/><path d="M39 37.5a4 4 0 00-1.2 2.8c0 2.2 1.8 3.9 3.9 3.9h8.6v8.1a2 2 0 01-2.1 2.1h-35a2 2 0 01-2.1-2.1v-24a2 2 0 012.1-2.1h35.1a2 2 0 012.1 2.1v8.1h-8.6a4 4 0 00-2.8 1.1z" fill="#474e5e"/><path d="M13.8 51.8V28.9h33.8v4.8h-5.9c-1.8 0-3.4.7-4.7 1.9a6.4 6.4 0 00-1.9 4.7c0 3.7 3 6.6 6.6 6.6h5.9v4.8H13.8z" fill="#2e3545"/><path d="M48 53.2h-1.3l-.1-.1.1-.1H48l.1.1-.1.1zm-2.7 0H44l-.1-.1.1-.1h1.3l.1.1-.1.1zm-2.6 0h-1.3l-.1-.1.1-.1h1.3l.1.1-.1.1zm-2.7 0h-1.3l-.1-.1.1-.1H40l.1.1-.1.1zm-2.7 0H36l-.1-.1.1-.1h1.3l.1.1-.1.1zm-2.7 0h-1.3l-.1-.1.1-.1h1.3l.1.1-.1.1zm-2.6 0h-1.3l-.1-.1.1-.1H32l.1.1-.1.1zm-2.7 0H28l-.1-.1.1-.1h1.3l.1.1-.1.1zm-2.7 0h-1.3l-.1-.1.1-.1h1.3l.1.1-.1.1zm-2.7 0h-1.3l-.1-.1.1-.1h1.3l.1.1-.1.1zm-2.6 0H20l-.1-.1.1-.1h1.3l.1.1-.1.1zm-2.7 0h-1.3l-.1-.1.1-.1h1.3l.1.1-.1.1zm-2.7 0h-1.3l-.1-.1.1-.1h1.3l.1.1-.1.1zm-2.7 0a.9.9 0 01-.9-.9v-.1l.1-.1.1.1v.1c0 .4.3.6.6.6l.1.1s.1.2 0 .2zm35.8-.6l-.1-.1v-1.3l.1-.1.1.1v1.4H49zM12.5 51l-.1-.1v-1.3l.1-.1.1.1v1.3l-.1.1zm36.6-1l-.1-.1v-1.3l.1-.1.1.1v1.3l-.1.1zm-36.6-1.7l-.1-.1v-1.3l.1-.1.1.1v1.3l-.1.1zm36.6-1l-.1-.1v-1.3l.1-.1.1.1v1.3l-.1.1zm-36.6-1.6l-.1-.1v-1.3l.1-.1.1.1v1.3l-.1.1zm36.6-1.1l-.1-.1v-1.3l.1-.1.1.1v1.3l-.1.1zM12.5 43l-.1-.1v-1.3l.1-.1.1.1v1.3l-.1.1zm36.6-1.1l-.1-.1v-1.3l.1-.1.1.1v1.3l-.1.1zm-36.6-1.6l-.1-.1v-1.3l.1-.1.1.1v1.3l-.1.1zm36.6-1l-.1-.1v-1.3l.1-.1.1.1v1.3l-.1.1zm-36.6-1.7l-.1-.1v-1.3l.1-.1.1.1v1.3l-.1.1zm36.6-1l-.1-.1v-1.3l.1-.1.1.1v1.3l-.1.1zM12.5 35l-.1-.1v-1.3l.1-.1.1.1v1.3l-.1.1zm36.6-1.1l-.1-.1v-1.3l.1-.1.1.1v1.3l-.1.1zm-36.6-1.6l-.1-.1v-1.3l.1-.1.1.1v1.3l-.1.1zm36.6-1.1l-.1-.1v-1.3l.1-.1.1.1v1.3l-.1.1zm-36.6-1.6l-.1-.1v-1.4l.1-.1.1.1v1.3l-.1.2zm36.6-1l-.1-.1v-.1c0-.4-.3-.6-.6-.6l-.1-.1.1-.1c.5 0 .9.4.9.9v.1c-.1-.1-.2 0-.2 0zm-2.1-.9h-1.3l-.1-.1.1-.1H47l.1.1-.1.1zm-2.7 0H43l-.1-.1.1-.1h1.3l.1.1-.1.1zm-2.7 0h-1.3l-.1-.1.1-.1h1.3l.1.1-.1.1zm-2.7 0h-1.3l-.1-.1.1-.1h1.3l.1.1-.1.1zm-2.6 0H35l-.1-.1.1-.1h1.3l.1.1-.1.1zm-2.7 0h-1.3l-.1-.1.1-.1h1.3l.1.1-.1.1zm-2.7 0h-1.3l-.1-.1.1-.1h1.3l.1.1-.1.1zm-2.7 0h-1.3l-.1-.1.1-.1h1.3l.1.1-.1.1zm-2.6 0h-1.3l-.1-.1.1-.1h1.3l.1.1-.1.1zm-2.7 0h-1.3l-.1-.1.1-.1h1.3l.1.1-.1.1zm-2.7 0h-1.3l-.1-.1.1-.1h1.3l.1.1-.1.1zm-2.7 0h-1.3l-.1-.1.1-.1h1.3l.1.1-.1.1zm-2.6 0h-1.3l-.1-.1.1-.1h1.3l.1.1-.1.1z" fill="#57606d"/><path d="M52.9 44.3H41.1a3.9 3.9 0 010-7.8h11.8v7.8z" fill="#eb5151"/><g fill="#fff"><path d="M48.5 37.7l-.1-1.3h-7.3a3.9 3.9 0 00-3.9 3.9 4 4 0 001.6 3.2c.9.5 2 .8 3.1.8 3.6 0 6.6-3 6.6-6.6z" opacity=".1"/><circle cx="41.9" cy="40.3" r="2.2"/></g><path d="M43.1 38.4c.2.3.4.8.4 1.2a2.2 2.2 0 01-2.2 2.2c-.4 0-.9-.1-1.2-.4.4.6 1.1 1 1.9 1a2.2 2.2 0 002.2-2.2c-.1-.7-.5-1.4-1.1-1.8z" opacity=".1" fill="#231f20"/></svg>