<svg xmlns="http://www.w3.org/2000/svg" viewBox="0 0 1000 1000"><path d="M500 1000A500 500 0 01500 0a500 500 0 010 1000z" fill="#25d366"/><path d="M733.9 267.2a326.9 326.9 0 00-232.5-96.4 329 329 0 00-284.7 492.9L170.1 834l174.2-45.7c48 26.2 102 40 157 40h.1A329 329 0 00830 499.7c.1-87.8-34-170.4-96.1-232.5zM501.5 772.8h-.1c-49 0-97.1-13.2-139-38.1l-10-5.9L249 755.9l27.6-100.8-6.5-10.3a273.6 273.6 0 01231.5-418.5c73 0 141.5 28.5 193.1 80.1s80 120.3 79.9 193.2a273.5 273.5 0 01-273.1 273.2zm149.8-204.6c-8.2-4.1-48.6-24-56.1-26.7s-13-4.1-18.5 4.1-21.2 26.7-26 32.2-9.6 6.2-17.8 2.1-34.7-12.8-66-40.8c-24.4-21.8-40.9-48.7-45.7-56.9s-.5-12.7 3.6-16.8c3.7-3.7 8.2-9.6 12.3-14.4s5.5-8.2 8.2-13.7 1.4-10.3-.7-14.4-18.5-44.5-25.3-61c-6.7-16-13.4-13.8-18.5-14.1-4.8-.2-10.3-.3-15.7-.3-5.5 0-14.4 2.1-21.9 10.3s-28.7 28.1-28.7 68.5 29.4 79.5 33.5 84.9c4.1 5.5 57.9 88.4 140.3 124a469.2 469.2 0 0046.8 17.3c19.7 6.3 37.6 5.4 51.7 3.3 15.8-2.4 48.6-19.9 55.4-39 6.8-19.2 6.8-35.6 4.8-39s-7.5-5.4-15.7-9.6z" fill-rule="evenodd" fill="#fff"/></svg>