<svg xmlns="http://www.w3.org/2000/svg" viewBox="0 0 512 512" ><path d="M512 397.1c0 63.5-51.5 114.9-114.9 114.9H114.9C51.5 512 0 460.5 0 397.1V114.9C0 51.5 51.5 0 114.9 0h282.2C460.5 0 512 51.5 512 114.9v282.2z" fill="#fbc433"/><path d="M167.5 305c18.7 0 33.8 15.2 33.8 33.8 0 18.7-15.1 33.8-33.8 33.8s-33.8-15.1-33.8-33.8c0-18.6 15.2-33.8 33.8-33.8zm-33.7-47.1c63 0 114.3 51.1 114.3 115h47.1c0-89.4-72.4-162.1-161.4-162.1v47.1zm0-83.4c108.8 0 197.4 89.1 197.4 198.5h47c0-135.4-109.7-245.5-244.4-245.5v47z" fill="#fff"/></svg>