<svg xmlns="http://www.w3.org/2000/svg" viewBox="60 150 70 70"><g fill="currentColor"><path d="M0 .25h5a4.75 4.75 0 0 1 0 9.5H0z" transform="matrix(1 0 0 1 60 160)"></path><path d="M0 .25h5a4.75 4.75 0 0 1 0 9.5H0z" transform="matrix(-1 0 0 -1 70 190)"></path><path d="M0 .25h5a4.75 4.75 0 0 1 0 9.5H0z" transform="matrix(1 0 0 1 60 200)"></path><path d="M0 .25h5a4.75 4.75 0 0 1 0 9.5H0z" transform="matrix(-1 0 0 -1 90 160)"></path><path d="M0 .25h10v9.5H0z" transform="matrix(1 0 0 1 90 150)"></path><path d="M0 .25h10v9.5H0z" transform="matrix(1 0 0 1 100 150)"></path><path d="M0 .25h10v9.5H0z" transform="matrix(1 0 0 1 110 150)"></path><path d="M0 .25h5a4.75 4.75 0 0 1 0 9.5H0z" transform="matrix(1 0 0 1 120 150)"></path><path d="M5 .25a1 1 0 0 0 0 9.5 1 1 0 0 0 0-9.5" transform="matrix(1 0 0 1 100 160)"></path><path d="M5 .25a1 1 0 0 0 0 9.5 1 1 0 0 0 0-9.5" transform="matrix(1 0 0 1 120 160)"></path><path d="M5 .25a1 1 0 0 0 0 9.5 1 1 0 0 0 0-9.5" transform="matrix(1 0 0 1 70 170)"></path><path d="M5 .25a1 1 0 0 0 0 9.5 1 1 0 0 0 0-9.5" transform="matrix(1 0 0 1 90 170)"></path><path d="M0 .25h5a4.75 4.75 0 0 1 0 9.5H0z" transform="matrix(1 0 0 1 70 180)"></path><path d="M0 .25h5a4.75 4.75 0 0 1 0 9.5H0z" transform="matrix(-1 0 0 -1 100 190)"></path><path d="M0 .25h10v9.5H0z" transform="matrix(1 0 0 1 100 180)"></path><path d="M0 .25h10v9.5H0z" transform="matrix(1 0 0 1 110 180)"></path><path d="M0 .25h5a4.75 4.75 0 0 1 0 9.5H0z" transform="matrix(1 0 0 1 120 180)"></path><path d="M0 .25h5a4.75 4.75 0 0 1 0 9.5H0z" transform="matrix(-1 0 0 -1 80 200)"></path><path d="M0 .25h5a4.75 4.75 0 0 1 0 9.5H0z" transform="matrix(1 0 0 1 80 190)"></path><path d="M5 .25a1 1 0 0 0 0 9.5 1 1 0 0 0 0-9.5" transform="matrix(1 0 0 1 100 190)"></path><path d="M0 .25h5a4.75 4.75 0 0 1 0 9.5H0z" transform="matrix(-1 0 0 -1 120 210)"></path><path d="M0 .25h5a4.75 4.75 0 0 1 0 9.5H0z" transform="matrix(1 0 0 1 120 200)"></path><path d="M5 .25a1 1 0 0 0 0 9.5 1 1 0 0 0 0-9.5" transform="matrix(1 0 0 1 80 210)"></path><path d="M0 .25h5a4.75 4.75 0 0 1 0 9.5H0z" transform="matrix(-1 0 0 -1 110 220)"></path><path d="M0 .25h10v9.5H0z" transform="matrix(1 0 0 1 110 210)"></path><path d="M0 .25h5a4.75 4.75 0 0 1 0 9.5H0z" transform="matrix(1 0 0 1 120 210)"></path></g></svg>