<svg xmlns="http://www.w3.org/2000/svg" viewBox="60 150 70 70"><g fill="currentColor"><path d="M9.492 1.056c.784.25 1.18 5.706 1.007 6.4-.525 2.142-1.077 2.853-7.12 2.93C.4 9.806.338 2.567.856 2.198c2.3-1.64 7.09-1.63 8.636-1.14z" transform="matrix(1 0 0 1 60 160)"></path><path d="M.787-.034c.427-.68 5.98.276 6.646.6 2.024 1.017 2.6 1.71 1.31 7.432-1.27 2.667-7.695.944-7.947.365C-.32 5.803-.055 1.305.787-.034z" transform="matrix(1 0 0 1 60 180)"></path><path d="M9.492 1.056c.784.25 1.18 5.706 1.007 6.4-.525 2.142-1.077 2.853-7.12 2.93C.4 9.806.338 2.567.856 2.198c2.3-1.64 7.09-1.63 8.636-1.14z" transform="matrix(1 0 0 1 60 200)"></path><path d="M.787-.034c.427-.68 5.98.276 6.646.6 2.024 1.017 2.6 1.71 1.31 7.432-1.27 2.667-7.695.944-7.947.365C-.32 5.803-.055 1.305.787-.034z" transform="matrix(1 0 0 1 80 150)"></path><path d="M1.207 1.24C1.647.456 7.182.078 7.842.254c2.006.534 2.58 1.1 1.18 7.148-1.317 2.984-7.7 2.8-7.952 2.28-1.073-2.312-.73-6.894.136-8.44z" transform="matrix(1 0 0 1 90 150)"></path><path d="M9.377.883c.748.342.478 5.807.22 6.485-.78 2.062-1.416 2.7-7.423 2.044C-.7 8.464.234 2.077.793 1.773 3.275.424 7.903.21 9.377.883z" transform="matrix(1 0 0 1 100 150)"></path><path d="M10.537 2.443c.6.543-1.496 5.61-1.97 6.172-1.44 1.712-2.263 2.126-7.79-.264-2.44-1.744.76-8.276 1.398-8.397 2.828-.538 7.178 1.42 8.36 2.49z" transform="matrix(1 0 0 1 110 150)"></path><path d="M9.492 1.056c.784.25 1.18 5.706 1.007 6.4-.525 2.142-1.077 2.853-7.12 2.93C.4 9.806.338 2.567.856 2.198c2.3-1.64 7.09-1.63 8.636-1.14z" transform="matrix(1 0 0 1 120 150)"></path><path d="M9.492 1.056c.784.25 1.18 5.706 1.007 6.4-.525 2.142-1.077 2.853-7.12 2.93C.4 9.806.338 2.567.856 2.198c2.3-1.64 7.09-1.63 8.636-1.14z" transform="matrix(1 0 0 1 100 160)"></path><path d="M9.456 1.635c.727.455.296 5.934.022 6.58-.833 1.968-1.477 2.52-7.38.977C-.718 7.813.305.67.865.445c2.488-1 7.158.294 8.59 1.19z" transform="matrix(1 0 0 1 120 160)"></path><path d="M1.207 1.24C1.647.456 7.182.078 7.842.254c2.006.534 2.58 1.1 1.18 7.148-1.317 2.984-7.7 2.8-7.952 2.28-1.073-2.312-.73-6.894.136-8.44z" transform="matrix(1 0 0 1 70 170)"></path><path d="M9.377.883c.748.342.478 5.807.22 6.485-.78 2.062-1.416 2.7-7.423 2.044C-.7 8.464.234 2.077.793 1.773 3.275.424 7.903.21 9.377.883z" transform="matrix(1 0 0 1 90 170)"></path><path d="M10.537 2.443c.6.543-1.496 5.61-1.97 6.172-1.44 1.712-2.263 2.126-7.79-.264-2.44-1.744.76-8.276 1.398-8.397 2.828-.538 7.178 1.42 8.36 2.49z" transform="matrix(1 0 0 1 70 180)"></path><path d="M9.492 1.056c.784.25 1.18 5.706 1.007 6.4-.525 2.142-1.077 2.853-7.12 2.93C.4 9.806.338 2.567.856 2.198c2.3-1.64 7.09-1.63 8.636-1.14z" transform="matrix(1 0 0 1 90 180)"></path><path d="M9.456 1.635c.727.455.296 5.934.022 6.58-.833 1.968-1.477 2.52-7.38.977C-.718 7.813.305.67.865.445c2.488-1 7.158.294 8.59 1.19z" transform="matrix(1 0 0 1 100 180)"></path><path d="M.65.697c.492-.8 6.848-.604 7.5-.21 1.37.827 1.86 2.143 1.22 7.85C6.328 9.987.407 9.77.407 9.77S-.32 2.253.65.697z" transform="matrix(1 0 0 1 110 180)"></path><path d="M.787-.034c.427-.68 5.98.276 6.646.6 2.024 1.017 2.6 1.71 1.31 7.432-1.27 2.667-7.695.944-7.947.365C-.32 5.803-.055 1.305.787-.034z" transform="matrix(1 0 0 1 120 180)"></path><path d="M1.207 1.24C1.647.456 7.182.078 7.842.254c2.006.534 2.58 1.1 1.18 7.148-1.317 2.984-7.7 2.8-7.952 2.28-1.073-2.312-.73-6.894.136-8.44z" transform="matrix(1 0 0 1 70 190)"></path><path d="M9.377.883c.748.342.478 5.807.22 6.485-.78 2.062-1.416 2.7-7.423 2.044C-.7 8.464.234 2.077.793 1.773 3.275.424 7.903.21 9.377.883z" transform="matrix(1 0 0 1 80 190)"></path><path d="M10.537 2.443c.6.543-1.496 5.61-1.97 6.172-1.44 1.712-2.263 2.126-7.79-.264-2.44-1.744.76-8.276 1.398-8.397 2.828-.538 7.178 1.42 8.36 2.49z" transform="matrix(1 0 0 1 100 190)"></path><path d="M.787-.034c.427-.68 5.98.276 6.646.6 2.024 1.017 2.6 1.71 1.31 7.432-1.27 2.667-7.695.944-7.947.365C-.32 5.803-.055 1.305.787-.034z" transform="matrix(1 0 0 1 110 200)"></path><path d="M1.207 1.24C1.647.456 7.182.078 7.842.254c2.006.534 2.58 1.1 1.18 7.148-1.317 2.984-7.7 2.8-7.952 2.28-1.073-2.312-.73-6.894.136-8.44z" transform="matrix(1 0 0 1 120 200)"></path><path d="M9.456 1.635c.727.455.296 5.934.022 6.58-.833 1.968-1.477 2.52-7.38.977C-.718 7.813.305.67.865.445c2.488-1 7.158.294 8.59 1.19z" transform="matrix(1 0 0 1 80 210)"></path><path d="M.65.697c.492-.8 6.848-.604 7.5-.21 1.37.827 1.86 2.143 1.22 7.85C6.328 9.987.407 9.77.407 9.77S-.32 2.253.65.697z" transform="matrix(1 0 0 1 100 210)"></path><path d="M.787-.034c.427-.68 5.98.276 6.646.6 2.024 1.017 2.6 1.71 1.31 7.432-1.27 2.667-7.695.944-7.947.365C-.32 5.803-.055 1.305.787-.034z" transform="matrix(1 0 0 1 110 210)"></path><path d="M1.207 1.24C1.647.456 7.182.078 7.842.254c2.006.534 2.58 1.1 1.18 7.148-1.317 2.984-7.7 2.8-7.952 2.28-1.073-2.312-.73-6.894.136-8.44z" transform="matrix(1 0 0 1 120 210)"></path></g></svg>