<svg xmlns="http://www.w3.org/2000/svg" viewBox="0 0 70 70"><g fill="currentColor"><path d="m 10 5 a 5 5 0 1 0 -5 5 a 1 1 0 0 0 0 10 a 1 1 0 0 0 0 10 a 1 1 0 0 0 0 10 a 1 1 0 0 0 0 10 a 1 1 0 0 0 0 10 a 5 5 0 1 0 5 5 a 1 1 0 0 0 10 0 a 1 1 0 0 0 10 0 a 1 1 0 0 0 10 0 a 1 1 0 0 0 10 0 a 1 1 0 0 0 10 0 a 5 5 0 1 0 5 -5 a 1 1 0 0 0 0 -10 a 1 1 0 0 0 0 -10 a 1 1 0 0 0 0 -10 a 1 1 0 0 0 0 -10 a 1 1 0 0 0 0 -10 a 5 5 0 1 0 -5 -5 a 1 1 0 0 0 -10 0 a 1 1 0 0 0 -10 0 a 1 1 0 0 0 -10 0 a 1 1 0 0 0 -10 0 a 1 1 0 0 0 -10 0 a 1 1 0 0 0 10 0 a 1 1 0 0 0 10 0 a 1 1 0 0 0 10 0 a 1 1 0 0 0 10 0 a 1 1 0 0 0 10 0 a 5 5 0 0 0 5 5 a 1 1 0 0 0 0 10 a 1 1 0 0 0 0 10 a 1 1 0 0 0 0 10 a 1 1 0 0 0 0 10 a 1 1 0 0 0 0 10 a 5 5 0 0 0 -5 5 a 1 1 0 0 0 -10 0 a 1 1 0 0 0 -10 0 a 1 1 0 0 0 -10 0 a 1 1 0 0 0 -10 0 a 1 1 0 0 0 -10 0 a 5 5 0 0 0 -5 -5 a 1 1 0 0 0 0 -10 a 1 1 0 0 0 0 -10 a 1 1 0 0 0 0 -10 a 1 1 0 0 0 0 -10 a 1 1 0 0 0 0 -10 a 5 5 0 0 0 5 -5" transform="translate(0 0)"></path></g></svg>