<svg xmlns="http://www.w3.org/2000/svg" viewBox="0 0 70 70"><g fill="currentColor"><path d="M.25 5v60a4.75 4.75 90 0 0 9.5 0V5a4.75 4.75 90 0 0-9.5 0m60 0v60a4.75 4.75 90 0 0 9.5 0V5a4.75 4.75 90 0 0-9.5 0m-50 0a4.75 4.75 0 1 0 9.5 0 4.75 4.75 0 1 0-9.5 0m10 0a4.75 4.75 0 1 0 9.5 0 4.75 4.75 0 1 0-9.5 0m10 0a4.75 4.75 0 1 0 9.5 0 4.75 4.75 0 1 0-9.5 0m10 0a4.75 4.75 0 1 0 9.5 0 4.75 4.75 0 1 0-9.5 0m10 0a4.75 4.75 0 1 0 9.5 0 4.75 4.75 0 1 0-9.5 0m-40 60a4.75 4.75 0 1 0 9.5 0 4.75 4.75 0 1 0-9.5 0m10 0a4.75 4.75 0 1 0 9.5 0 4.75 4.75 0 1 0-9.5 0m10 0a4.75 4.75 0 1 0 9.5 0 4.75 4.75 0 1 0-9.5 0m10 0a4.75 4.75 0 1 0 9.5 0 4.75 4.75 0 1 0-9.5 0m10 0a4.75 4.75 0 1 0 9.5 0 4.75 4.75 0 1 0-9.5 0" transform="translate(0 0)"></path></g></svg>