<svg width="30" height="30" viewBox="0 0 30 30" fill="none" xmlns="http://www.w3.org/2000/svg">
<path d="M25.5 13.5H8.121L13.0605 8.56049C13.1998 8.42122 13.3102 8.25589 13.3856 8.07393C13.461 7.89196 13.4998 7.69694 13.4998 7.49999C13.4998 7.30303 13.461 7.10801 13.3856 6.92605C13.3102 6.74409 13.1998 6.57875 13.0605 6.43949C12.9212 6.30022 12.7559 6.18975 12.5739 6.11438C12.392 6.03901 12.1969 6.00021 12 6.00021C11.803 6.00021 11.608 6.03901 11.4261 6.11438C11.2441 6.18975 11.0788 6.30022 10.9395 6.43949L3.4395 13.9395C3.30008 14.0787 3.18947 14.244 3.11401 14.4259C3.03854 14.6079 2.99969 14.803 2.99969 15C2.99969 15.197 3.03854 15.3921 3.11401 15.574C3.18947 15.756 3.30008 15.9213 3.4395 16.0605L10.9395 23.5605C11.0785 23.7003 11.2437 23.8112 11.4257 23.8869C11.6077 23.9626 11.8029 24.0015 12 24.0015C12.1971 24.0015 12.3923 23.9626 12.5743 23.8869C12.7563 23.8112 12.9215 23.7003 13.0605 23.5605C13.1999 23.4213 13.3105 23.256 13.386 23.074C13.4615 22.8921 13.5003 22.697 13.5003 22.5C13.5003 22.303 13.4615 22.1079 13.386 21.9259C13.3105 21.744 13.1999 21.5787 13.0605 21.4395L8.121 16.5H25.5C25.8978 16.5 26.2794 16.342 26.5607 16.0606C26.842 15.7793 27 15.3978 27 15C27 14.6022 26.842 14.2206 26.5607 13.9393C26.2794 13.658 25.8978 13.5 25.5 13.5Z" fill="currentColor"/>
</svg>
