<svg width="30" height="30" viewBox="0 0 30 30" fill="none" xmlns="http://www.w3.org/2000/svg">
<path d="M12.3333 5C12.6133 5 12.8818 5.1109 13.0797 5.30831C13.2777 5.50572 13.3889 5.77346 13.3889 6.05263V7.10526H17.6111V6.05263C17.6111 5.77346 17.7223 5.50572 17.9203 5.30831C18.1182 5.1109 18.3867 5 18.6667 5C18.9466 5 19.2151 5.1109 19.4131 5.30831C19.611 5.50572 19.7222 5.77346 19.7222 6.05263V7.10526H22.8889C23.4488 7.10526 23.9858 7.32707 24.3817 7.72188C24.7776 8.11669 25 8.65218 25 9.21053V22.8947C25 23.4531 24.7776 23.9886 24.3817 24.3834C23.9858 24.7782 23.4488 25 22.8889 25H8.11111C7.55121 25 7.01424 24.7782 6.61833 24.3834C6.22242 23.9886 6 23.4531 6 22.8947V9.21053C6 8.65218 6.22242 8.11669 6.61833 7.72188C7.01424 7.32707 7.55121 7.10526 8.11111 7.10526H11.2778V6.05263C11.2778 5.77346 11.389 5.50572 11.5869 5.30831C11.7849 5.1109 12.0534 5 12.3333 5ZM11.2778 9.21053H8.11111V12.3684H22.8889V9.21053H19.7222V10.2632C19.7222 10.5423 19.611 10.8101 19.4131 11.0075C19.2151 11.2049 18.9466 11.3158 18.6667 11.3158C18.3867 11.3158 18.1182 11.2049 17.9203 11.0075C17.7223 10.8101 17.6111 10.5423 17.6111 10.2632V9.21053H13.3889V10.2632C13.3889 10.5423 13.2777 10.8101 13.0797 11.0075C12.8818 11.2049 12.6133 11.3158 12.3333 11.3158C12.0534 11.3158 11.7849 11.2049 11.5869 11.0075C11.389 10.8101 11.2778 10.5423 11.2778 10.2632V9.21053ZM22.8889 14.4737H8.11111V22.8947H22.8889V14.4737Z" fill="currentColor"/>
</svg>
