<svg width="19" height="20" viewBox="0 0 19 20" fill="none" xmlns="http://www.w3.org/2000/svg">
<path d="M6.33333 0C6.61328 0 6.88177 0.110902 7.07972 0.308309C7.27768 0.505715 7.38889 0.773456 7.38889 1.05263V2.10526H11.6111V1.05263C11.6111 0.773456 11.7223 0.505715 11.9203 0.308309C12.1182 0.110902 12.3867 0 12.6667 0C12.9466 0 13.2151 0.110902 13.4131 0.308309C13.611 0.505715 13.7222 0.773456 13.7222 1.05263V2.10526H16.8889C17.4488 2.10526 17.9858 2.32707 18.3817 2.72188C18.7776 3.11669 19 3.65218 19 4.21053V17.8947C19 18.4531 18.7776 18.9886 18.3817 19.3834C17.9858 19.7782 17.4488 20 16.8889 20H2.11111C1.55121 20 1.01424 19.7782 0.61833 19.3834C0.22242 18.9886 0 18.4531 0 17.8947V4.21053C0 3.65218 0.22242 3.11669 0.61833 2.72188C1.01424 2.32707 1.55121 2.10526 2.11111 2.10526H5.27778V1.05263C5.27778 0.773456 5.38899 0.505715 5.58694 0.308309C5.7849 0.110902 6.05338 0 6.33333 0ZM5.27778 4.21053H2.11111V7.36842H16.8889V4.21053H13.7222V5.26316C13.7222 5.54233 13.611 5.81007 13.4131 6.00748C13.2151 6.20489 12.9466 6.31579 12.6667 6.31579C12.3867 6.31579 12.1182 6.20489 11.9203 6.00748C11.7223 5.81007 11.6111 5.54233 11.6111 5.26316V4.21053H7.38889V5.26316C7.38889 5.54233 7.27768 5.81007 7.07972 6.00748C6.88177 6.20489 6.61328 6.31579 6.33333 6.31579C6.05338 6.31579 5.7849 6.20489 5.58694 6.00748C5.38899 5.81007 5.27778 5.54233 5.27778 5.26316V4.21053ZM16.8889 9.47368H2.11111V17.8947H16.8889V9.47368Z" fill="currentColor"/>
</svg>
