<svg width="25" height="25" viewBox="0 0 25 25" fill="none" xmlns="http://www.w3.org/2000/svg">
<path fill-rule="evenodd" clip-rule="evenodd" d="M21.2488 3.63187C18.9314 1.29919 15.7768 -0.00872368 12.4887 4.37963e-05C5.66211 4.37963e-05 0.106294 5.55527 0.103919 12.3836C0.101003 14.5569 0.671246 16.6924 1.75712 18.5749L0 24.9929L6.56532 23.2708C8.38097 24.2602 10.4157 24.7785 12.4834 24.7785H12.4887C19.3142 24.7785 24.8705 19.2227 24.8729 12.3944C24.8835 9.10675 23.5785 5.95153 21.2488 3.63187ZM18.1348 14.9745C17.8254 14.8195 16.304 14.0714 16.0202 13.965C15.7363 13.8587 15.5303 13.81 15.3243 14.12C15.1182 14.43 14.525 15.1266 14.3445 15.3332C14.1639 15.5398 13.9834 15.5653 13.6739 15.4104C13.3646 15.2554 12.3676 14.9287 11.1853 13.8748C10.2654 13.0541 9.64133 12.041 9.46318 11.731C9.28504 11.421 9.44418 11.2559 9.59917 11.0992C9.73812 10.9608 9.90855 10.7381 10.0629 10.5571C10.2173 10.3759 10.2696 10.2477 10.3723 10.041C10.4751 9.83436 10.4239 9.65384 10.3468 9.49885C10.2696 9.34386 9.65024 7.82071 9.39252 7.20135C9.14133 6.59802 8.88658 6.67937 8.69656 6.66691C8.51841 6.658 8.30938 6.65622 8.10274 6.65622C7.78563 6.66451 7.48641 6.80486 7.27732 7.0434C6.99406 7.35336 6.19478 8.10158 6.19478 9.62475C6.19478 11.1479 7.30344 12.6194 7.45784 12.826C7.61223 13.0327 9.64014 16.158 12.7429 17.4989C13.3192 17.7474 13.908 17.9654 14.5072 18.1521C15.2482 18.3896 15.9228 18.3546 16.456 18.275C17.0499 18.1859 18.2869 17.5261 18.5451 16.8034C18.8034 16.0808 18.8029 15.4608 18.7233 15.332C18.6437 15.2031 18.4442 15.1319 18.1348 14.9769V14.9745Z" fill="currentColor"/>
</svg>
