<svg width="30" height="30" viewBox="0 0 30 30" fill="none" xmlns="http://www.w3.org/2000/svg">
<path d="M4 8.25C4 7.65326 4.24232 7.08097 4.67365 6.65901C5.10499 6.23705 5.69 6 6.3 6H24.7C25.31 6 25.895 6.23705 26.3263 6.65901C26.7577 7.08097 27 7.65326 27 8.25V21.75C27 22.3467 26.7577 22.919 26.3263 23.341C25.895 23.7629 25.31 24 24.7 24H6.3C5.69 24 5.10499 23.7629 4.67365 23.341C4.24232 22.919 4 22.3467 4 21.75V8.25ZM8.04685 8.25L15.5 14.6299L22.9531 8.25H8.04685ZM24.7 9.74513L16.2579 16.9721C16.0481 17.1519 15.7788 17.251 15.5 17.251C15.2212 17.251 14.9519 17.1519 14.7421 16.9721L6.3 9.74513V21.75H24.7V9.74513Z" fill="currentColor"/>
</svg>
