<svg width="24" height="24" viewBox="0 0 24 24" fill="none" xmlns="http://www.w3.org/2000/svg">
<path d="M16.3781 6.81818V9.77273H7.62524V6.81818H16.3781ZM9.6288 21V5.79332C9.6288 4.76539 9.82884 3.91288 10.2289 3.23579C10.6352 2.55871 11.1892 2.0509 11.8909 1.71236C12.5926 1.37382 13.3897 1.20454 14.2822 1.20454C14.8854 1.20454 15.4363 1.25071 15.9349 1.34304C16.4396 1.43537 16.8151 1.51847 17.0613 1.59233L16.3596 4.54688C16.2057 4.49763 16.0149 4.45147 15.7872 4.40838C15.5656 4.36529 15.3378 4.34375 15.1039 4.34375C14.5253 4.34375 14.1222 4.47917 13.8944 4.75C13.6667 5.01468 13.5528 5.38707 13.5528 5.86719V21H9.6288Z" fill="currentColor"/>
</svg>
