<svg width="13" height="16" viewBox="0 0 13 16" fill="none" xmlns="http://www.w3.org/2000/svg">
<g clip-path="url(#clip0_75_7)">
<path d="M8.9652 0.904171C7.61135 0.570741 6.2034 0.570741 4.84958 0.904187C4.06764 0.395379 3.47016 0.161891 3.0359 0.0635184C2.79981 0.0100286 2.61268 -0.00333502 2.47193 0.000657639C2.40168 0.00264223 2.34355 0.00893648 2.29725 0.016499C2.27412 0.0202686 2.25402 0.0243434 2.23692 0.0283126C2.22837 0.0302972 2.22057 0.0322583 2.21353 0.034149L2.20354 0.0369086L2.19898 0.0382356L2.19679 0.0388815L2.19469 0.0395156C2.19469 0.0395039 2.19468 0.0395156 2.19469 0.0395156C2.19421 0.0397387 2.19655 0.0464088 2.34685 0.603536L2.19469 0.0395156C2.03735 0.0872043 1.90797 0.206221 1.84125 0.364612C1.65497 0.806773 1.55324 1.28371 1.54192 1.76782C1.5335 2.12758 1.57514 2.48601 1.66497 2.83165C1.42891 3.13477 1.23657 3.47419 1.09485 3.83891C0.908835 4.31763 0.81368 4.83053 0.81483 5.34827C0.814975 7.17147 1.32237 8.39728 2.18705 9.18496C2.79287 9.73685 3.52935 10.0305 4.26679 10.1987C4.14501 10.5573 4.1134 10.9367 4.13805 11.3234V12.0259C3.68681 12.1265 3.37523 12.0947 3.1531 12.017C2.87396 11.9193 2.65997 11.7229 2.45585 11.4407C2.35246 11.2979 2.25722 11.1411 2.15721 10.9694L2.09372 10.8598C2.01539 10.7242 1.93086 10.578 1.84555 10.4446C1.63418 10.1141 1.32235 9.70117 0.817015 9.56053L0.2813 9.41141L0 10.5472L0.535715 10.6963C0.623725 10.7209 0.73957 10.8079 0.92872 11.1036C0.99822 11.2122 1.06452 11.3269 1.14022 11.4579C1.16399 11.499 1.18875 11.5419 1.21477 11.5866C1.31874 11.765 1.43799 11.9635 1.57694 12.1555C1.85745 12.5432 2.23937 12.9339 2.80593 13.1321C3.1952 13.2683 3.63519 13.301 4.13805 13.2191V15.4129C4.13805 15.7371 4.38604 16 4.69193 16H9.1229C9.4288 16 9.67675 15.7371 9.67675 15.4129V11.2293C9.67675 10.8585 9.66155 10.5195 9.56305 10.2031C10.2968 10.039 11.0275 9.74507 11.6293 9.19275C12.4937 8.39952 13 7.16267 13 5.32844V5.32655C12.9973 4.41203 12.6945 3.53112 12.1498 2.83167C12.2397 2.48602 12.2813 2.12759 12.2729 1.76782C12.2616 1.28371 12.1599 0.806773 11.9735 0.364612C11.9067 0.206174 11.7774 0.0871456 11.62 0.0394686L11.4679 0.604032C11.62 0.0394686 11.6185 0.0389988 11.6179 0.0388345L11.6158 0.0381886L11.6111 0.0368733L11.6011 0.0341137C11.5941 0.0322348 11.5863 0.0302738 11.5778 0.0282892C11.5607 0.0243201 11.5406 0.0202569 11.5175 0.0164873C11.4712 0.00893648 11.4131 0.00264223 11.3428 0.000657639C11.2021 -0.00333502 11.0148 0.0100286 10.7787 0.0635067C10.3443 0.161891 9.7469 0.395367 8.9652 0.904171Z" fill="black"/>
</g>
<defs>
<clipPath id="clip0_75_7">
<rect width="13" height="16" fill="white"/>
</clipPath>
</defs>
</svg>
