<svg width="24" height="24" viewBox="0 0 24 24" fill="none" xmlns="http://www.w3.org/2000/svg">
<path d="M11.9999 0C9.15054 0.000118673 6.39414 1.01856 4.22396 2.87309C2.05378 4.72762 0.61143 7.29722 0.154992 10.1221C-0.301447 12.947 0.257812 15.8429 1.7327 18.2915C3.20759 20.7401 5.50186 22.5818 8.205 23.4869C8.80499 23.5924 9.02999 23.2309 9.02999 22.9144C9.02999 22.6282 9.01498 21.6791 9.01498 20.6697C5.99999 21.2271 5.22 19.9315 4.98 19.2536C4.71369 18.5942 4.29153 18.0099 3.75001 17.5512C3.33001 17.3252 2.73001 16.7678 3.73499 16.7527C4.11874 16.7946 4.48679 16.9287 4.80796 17.1437C5.12913 17.3588 5.39395 17.6484 5.57999 17.9881C5.74412 18.2842 5.96481 18.5449 6.22942 18.7552C6.49403 18.9655 6.79735 19.1213 7.12202 19.2137C7.44669 19.306 7.78631 19.3332 8.12143 19.2935C8.45655 19.2538 8.78058 19.1481 9.07494 18.9824C9.12689 18.3697 9.39877 17.7968 9.83996 17.3704C7.16998 17.0691 4.38 16.0296 4.38 11.4196C4.36314 10.2218 4.80322 9.06286 5.60999 8.18054C5.24313 7.13949 5.28606 5.99701 5.72999 4.98668C5.72999 4.98668 6.73495 4.67029 9.02997 6.22204C10.9935 5.67966 13.0664 5.67966 15.0299 6.22204C17.3249 4.65524 18.3299 4.98668 18.3299 4.98668C18.7739 5.99699 18.8168 7.1395 18.4499 8.18054C19.2591 9.06135 19.6996 10.2213 19.6799 11.4196C19.6799 16.0446 16.8749 17.0691 14.2049 17.3704C14.4913 17.662 14.7119 18.012 14.8516 18.3967C14.9914 18.7814 15.0471 19.1918 15.0149 19.6001C15.0149 21.2121 14.9999 22.5077 14.9999 22.9145C14.9999 23.2309 15.2249 23.6075 15.8249 23.487C18.5233 22.5745 20.811 20.7285 22.2796 18.2786C23.7482 15.8287 24.3021 12.9343 23.8425 10.1122C23.3829 7.29001 21.9397 4.72375 19.7705 2.87148C17.6012 1.0192 14.8472 0.00148835 11.9999 0Z" fill="currentColor"/>
</svg>
