<svg width="17" height="17" viewBox="0 0 17 17" fill="none" xmlns="http://www.w3.org/2000/svg">
<path d="M16.0174 8.31118C16.0174 7.75869 15.9721 7.20385 15.8769 6.66064H8.16995V9.78869H12.5829C12.4919 10.2893 12.3002 10.7662 12.0195 11.1906C11.7388 11.6149 11.3749 11.9778 10.9498 12.2575V14.2887H13.5834C15.1295 12.8727 16.0174 10.7834 16.0174 8.31118Z" fill="#4285F4"/>
<path d="M8.17112 16.2491C10.3741 16.2491 12.2324 15.5295 13.5858 14.2876L10.9533 12.2575C10.2209 12.7531 9.27492 13.034 8.17348 13.034C6.04245 13.034 4.23522 11.6041 3.58639 9.68198H0.870377V11.7747C1.55472 13.1225 2.59932 14.2542 3.88814 15.0441C5.17697 15.834 6.6595 16.2511 8.17112 16.2491Z" fill="#34A853"/>
<path d="M3.58291 9.68198C3.24063 8.67333 3.24063 7.57992 3.58291 6.57133V4.47858H0.869212C0.297737 5.60972 0 6.85931 0 8.12666C0 9.39395 0.297737 10.6435 0.869212 11.7747L3.58291 9.68198Z" fill="#FBBC04"/>
<path d="M8.17112 3.21456C9.33485 3.1957 10.4598 3.63316 11.305 4.43329L13.638 2.11307C12.1553 0.731917 10.1973 -0.0246676 8.17112 0.000613766C6.65907 -0.00130524 5.17617 0.416234 3.88728 1.20679C2.59838 1.99733 1.55403 3.12991 0.870377 4.47856L3.58175 6.56896C4.22709 4.64453 6.03774 3.21456 8.16877 3.21456H8.17112Z" fill="#EA4335"/>
</svg>
