<svg width="17" height="17" viewBox="0 0 17 17" fill="none" xmlns="http://www.w3.org/2000/svg">
<path d="M17 0H0V17H17V0Z" fill="white" fill-opacity="0.01"/>
<path fill-rule="evenodd" clip-rule="evenodd" d="M8 2.7C8 2.3134 8.3134 2 8.7 2H14.3C14.6866 2 15 2.3134 15 2.7V8.3C15 8.6866 14.6866 9 14.3 9C13.9134 9 13.6 8.6866 13.6 8.3V3.4H8.7C8.3134 3.4 8 3.0866 8 2.7Z" fill="currentColor"/>
<path fill-rule="evenodd" clip-rule="evenodd" d="M3.625 3.3C3.44551 3.3 3.3 3.44551 3.3 3.625V13.375C3.3 13.5545 3.4455 13.7 3.625 13.7H13.375C13.5545 13.7 13.7 13.5545 13.7 13.375V10.279C13.7 9.91997 13.991 9.62895 14.35 9.62895C14.709 9.62895 15 9.91997 15 10.279V13.375C15 14.2725 14.2725 15 13.375 15H3.625C2.72755 15 2 14.2725 2 13.375V3.625C2 2.72754 2.72754 2 3.625 2H6.55C6.90898 2 7.2 2.29101 7.2 2.65C7.2 3.00899 6.90898 3.3 6.55 3.3H3.625Z" fill="currentColor"/>
<path fill-rule="evenodd" clip-rule="evenodd" d="M14.7875 2.21246C15.0708 2.49574 15.0708 2.95503 14.7875 3.23832L9.23832 8.78754C8.95503 9.07082 8.49574 9.07082 8.21246 8.78754C7.92918 8.50426 7.92918 8.04497 8.21246 7.76169L13.7617 2.21246C14.045 1.92918 14.5043 1.92918 14.7875 2.21246Z" fill="currentColor"/>
</svg>
