<svg width="25" height="24" viewBox="0 0 25 24" fill="none" xmlns="http://www.w3.org/2000/svg">
<path d="M2.63741 21V6.81818H6.57065V21H2.63741ZM4.61326 4.99006C4.02851 4.99006 3.52685 4.79616 3.10829 4.40838C2.69588 4.01444 2.48968 3.54356 2.48968 2.99574C2.48968 2.45407 2.69588 1.98935 3.10829 1.60156C3.52685 1.20762 4.02851 1.01065 4.61326 1.01065C5.19801 1.01065 5.69659 1.20762 6.109 1.60156C6.52756 1.98935 6.73684 2.45407 6.73684 2.99574C6.73684 3.54356 6.52756 4.01444 6.109 4.40838C5.69659 4.79616 5.19801 4.99006 4.61326 4.99006ZM13.6546 12.8011V21H9.72139V6.81818H13.47V9.32031H13.6362C13.9501 8.4955 14.4764 7.84304 15.215 7.36293C15.9536 6.87666 16.8492 6.63352 17.9018 6.63352C18.8866 6.63352 19.7453 6.84896 20.4778 7.27983C21.2103 7.7107 21.7796 8.32623 22.1859 9.12642C22.5921 9.92045 22.7953 10.8684 22.7953 11.9702V21H18.862V12.6719C18.8682 11.804 18.6466 11.1269 18.1972 10.6406C17.7479 10.1482 17.1293 9.90199 16.3414 9.90199C15.8121 9.90199 15.3443 10.0159 14.938 10.2436C14.5379 10.4714 14.224 10.8037 13.9963 11.2408C13.7747 11.6716 13.6608 12.1918 13.6546 12.8011Z" fill="currentColor"/>
</svg>
