<svg width="26" height="21" viewBox="0 0 26 21" fill="none" xmlns="http://www.w3.org/2000/svg">
<path fill-rule="evenodd" clip-rule="evenodd" d="M13 4.7C12.4201 4.7 11.95 5.1701 11.95 5.75C11.95 6.3299 12.4201 6.8 13 6.8C13.5799 6.8 14.05 6.3299 14.05 5.75C14.05 5.1701 13.5799 4.7 13 4.7ZM11.25 5.75C11.25 4.7835 12.0335 4 13 4C13.9665 4 14.75 4.7835 14.75 5.75C14.75 6.7165 13.9665 7.5 13 7.5C12.0335 7.5 11.25 6.7165 11.25 5.75Z" fill="currentColor" stroke="currentColor" stroke-miterlimit="10"/>
<path fill-rule="evenodd" clip-rule="evenodd" d="M8 6.46849C8 3.47393 10.2685 1 13.125 1C15.9828 1 18.2375 3.47503 18.25 6.46699L17.8853 6.46848L18.25 6.46693C18.25 6.46695 18.25 6.46697 18.25 6.46699C18.2542 7.45019 17.9373 8.54982 17.4833 9.62596C17.0271 10.7075 16.4201 11.7933 15.8173 12.7569C15.2139 13.7214 14.6106 14.5697 14.1584 15.1766C13.9322 15.4803 13.7434 15.724 13.6109 15.8922C13.5446 15.9763 13.4924 16.0415 13.4566 16.0859C13.4456 16.0995 13.4362 16.1111 13.4284 16.1208C13.4234 16.1269 13.4191 16.1323 13.4154 16.1368C13.4107 16.1426 13.407 16.147 13.4046 16.15L13.4006 16.1548C13.4006 16.1549 13.4005 16.1549 13.1173 15.9243C13.4013 15.6946 13.4013 15.6946 13.4013 15.6946L13.3984 15.6911C13.3963 15.6885 13.3931 15.6845 13.3888 15.6792C13.3802 15.6686 13.3672 15.6526 13.3502 15.6314C13.3162 15.589 13.2661 15.5259 13.202 15.444C13.1762 15.4112 13.1483 15.3753 13.1182 15.3365C13.2387 15.1821 13.3925 14.9817 13.5701 14.7432C14.0142 14.1473 14.6055 13.3157 15.1957 12.3723C15.7865 11.4279 16.3722 10.3778 16.8082 9.34434C17.2464 8.30549 17.5215 7.31106 17.5178 6.47005L17.5178 6.46999C17.5068 3.82201 15.5247 1.72802 13.125 1.72802C10.724 1.72802 8.73214 3.82312 8.73214 6.46849C8.73214 7.31039 9.00845 8.30549 9.4461 9.34453C9.88152 10.3783 10.4649 11.4285 11.0529 12.373C11.6403 13.3164 12.2283 14.1481 12.6697 14.7441C12.8459 14.9821 12.9986 15.1822 13.1182 15.3365C13.0882 15.3749 13.0603 15.4105 13.0346 15.4432C12.9701 15.525 12.9196 15.5881 12.8854 15.6305C12.8683 15.6517 12.8553 15.6677 12.8466 15.6783C12.8423 15.6836 12.8391 15.6876 12.837 15.6902L12.8341 15.6936L12.834 15.6937L12.8342 15.6938C12.8357 15.6951 12.8559 15.7115 13.1173 15.9243C12.8333 16.154 12.8333 16.154 12.8332 16.1539L12.8322 16.1526L12.8293 16.1491C12.8268 16.1461 12.8232 16.1417 12.8186 16.1359C12.8092 16.1243 12.7954 16.1073 12.7776 16.0851C12.742 16.0406 12.6901 15.9754 12.6243 15.8913C12.4926 15.7231 12.305 15.4794 12.0801 15.1758C11.6307 14.5688 11.0309 13.7206 10.4304 12.7562C9.83062 11.7927 9.22623 10.707 8.7708 9.62578C8.31759 8.54981 8 7.45082 8 6.46849ZM13.1173 15.9243L12.8333 16.154L13.1164 16.5L13.4005 16.1549L13.1173 15.9243Z" fill="currentColor"/>
<path d="M18.25 6.46699C18.2375 3.47503 15.9828 1 13.125 1C10.2685 1 8 3.47393 8 6.46849C8 7.45082 8.31759 8.54981 8.7708 9.62578C9.22623 10.707 9.83062 11.7927 10.4304 12.7562C11.0309 13.7206 11.6307 14.5688 12.0801 15.1758C12.305 15.4794 12.4926 15.7231 12.6243 15.8913C12.6901 15.9754 12.742 16.0406 12.7776 16.0851C12.7954 16.1073 12.8092 16.1243 12.8186 16.1359C12.8232 16.1417 12.8268 16.1461 12.8293 16.1491L12.8322 16.1526L12.8332 16.1539C12.8333 16.154 12.8333 16.154 13.1173 15.9243M18.25 6.46699L17.8853 6.46848L18.25 6.46693C18.25 6.46695 18.25 6.46697 18.25 6.46699ZM18.25 6.46699C18.2542 7.45019 17.9373 8.54982 17.4833 9.62596C17.0271 10.7075 16.4201 11.7933 15.8173 12.7569C15.2139 13.7214 14.6106 14.5697 14.1584 15.1766C13.9322 15.4803 13.7434 15.724 13.6109 15.8922C13.5446 15.9763 13.4924 16.0415 13.4566 16.0859C13.4456 16.0995 13.4362 16.1111 13.4284 16.1208C13.4234 16.1269 13.4191 16.1323 13.4154 16.1368C13.4107 16.1426 13.407 16.147 13.4046 16.15L13.4006 16.1548C13.4006 16.1549 13.4005 16.1549 13.1173 15.9243M13.1173 15.9243C13.4013 15.6946 13.4013 15.6946 13.4013 15.6946L13.3984 15.6911C13.3963 15.6885 13.3931 15.6845 13.3888 15.6792C13.3802 15.6686 13.3672 15.6526 13.3502 15.6314C13.3162 15.589 13.2661 15.5259 13.202 15.444C13.1762 15.4112 13.1483 15.3753 13.1182 15.3365M13.1173 15.9243C12.8559 15.7115 12.8357 15.6951 12.8342 15.6938L12.834 15.6937L12.8341 15.6936L12.837 15.6902C12.8391 15.6876 12.8423 15.6836 12.8466 15.6783C12.8553 15.6677 12.8683 15.6517 12.8854 15.6305C12.9196 15.5881 12.9701 15.525 13.0346 15.4432C13.0603 15.4105 13.0882 15.3749 13.1182 15.3365M13.1173 15.9243L12.8333 16.154L13.1164 16.5L13.4005 16.1549L13.1173 15.9243ZM13.1182 15.3365C13.2387 15.1821 13.3925 14.9817 13.5701 14.7432C14.0142 14.1473 14.6055 13.3157 15.1957 12.3723C15.7865 11.4279 16.3722 10.3778 16.8082 9.34434C17.2464 8.30549 17.5215 7.31106 17.5178 6.47005L17.5178 6.46999C17.5068 3.82201 15.5247 1.72802 13.125 1.72802C10.724 1.72802 8.73214 3.82312 8.73214 6.46849C8.73214 7.31039 9.00845 8.30549 9.4461 9.34453C9.88152 10.3783 10.4649 11.4285 11.0529 12.373C11.6403 13.3164 12.2283 14.1481 12.6697 14.7441C12.8459 14.9821 12.9986 15.1822 13.1182 15.3365Z" stroke="currentColor" stroke-miterlimit="10"/>
<path fill-rule="evenodd" clip-rule="evenodd" d="M5.44155 12H8.96223V12.7273H5.87563L2.24163 19.2727H23.7584L20.1244 12.7273H17.0378V12H20.5584L25 20H1L5.44155 12Z" fill="currentColor" stroke="currentColor" stroke-miterlimit="10"/>
</svg>
