<svg width="30" height="30" viewBox="0 0 30 30" fill="none" xmlns="http://www.w3.org/2000/svg">
<path fill-rule="evenodd" clip-rule="evenodd" d="M15 9.7C14.4201 9.7 13.95 10.1701 13.95 10.75C13.95 11.3299 14.4201 11.8 15 11.8C15.5799 11.8 16.05 11.3299 16.05 10.75C16.05 10.1701 15.5799 9.7 15 9.7ZM13.25 10.75C13.25 9.7835 14.0335 9 15 9C15.9665 9 16.75 9.7835 16.75 10.75C16.75 11.7165 15.9665 12.5 15 12.5C14.0335 12.5 13.25 11.7165 13.25 10.75Z" fill="currentColor" stroke="currentColor" stroke-miterlimit="10"/>
<path fill-rule="evenodd" clip-rule="evenodd" d="M10 11.4685C10 8.47393 12.2685 6 15.125 6C17.9828 6 20.2375 8.47503 20.25 11.467L19.8853 11.4685L20.25 11.4669C20.25 11.4669 20.25 11.467 20.25 11.467C20.2542 12.4502 19.9373 13.5498 19.4833 14.626C19.0271 15.7075 18.4201 16.7934 17.8173 17.7569C17.2139 18.7214 16.6106 19.5697 16.1584 20.1766C15.9322 20.4803 15.7434 20.724 15.6109 20.8922C15.5446 20.9763 15.4924 21.0415 15.4566 21.0859C15.4456 21.0995 15.4362 21.1111 15.4284 21.1208C15.4234 21.1269 15.4191 21.1323 15.4154 21.1368C15.4107 21.1426 15.407 21.147 15.4046 21.15L15.4006 21.1548C15.4006 21.1549 15.4005 21.1549 15.1173 20.9243C15.4013 20.6946 15.4013 20.6946 15.4013 20.6946L15.3984 20.6911C15.3963 20.6885 15.3931 20.6845 15.3888 20.6792C15.3802 20.6686 15.3672 20.6526 15.3502 20.6314C15.3162 20.589 15.2661 20.5259 15.202 20.444C15.1762 20.4112 15.1483 20.3753 15.1182 20.3365C15.2387 20.1821 15.3925 19.9817 15.5701 19.7432C16.0142 19.1473 16.6055 18.3157 17.1957 17.3723C17.7865 16.4279 18.3722 15.3778 18.8082 14.3443C19.2464 13.3055 19.5215 12.3111 19.5178 11.4701L19.5178 11.47C19.5068 8.82201 17.5247 6.72802 15.125 6.72802C12.724 6.72802 10.7321 8.82312 10.7321 11.4685C10.7321 12.3104 11.0084 13.3055 11.4461 14.3445C11.8815 15.3783 12.4649 16.4285 13.0529 17.373C13.6403 18.3164 14.2283 19.1481 14.6697 19.7441C14.8459 19.9821 14.9986 20.1822 15.1182 20.3365C15.0882 20.3749 15.0603 20.4105 15.0346 20.4432C14.9701 20.525 14.9196 20.5881 14.8854 20.6305C14.8683 20.6517 14.8553 20.6677 14.8466 20.6783C14.8423 20.6836 14.8391 20.6876 14.837 20.6902L14.8341 20.6936L14.834 20.6937L14.8342 20.6938C14.8357 20.6951 14.8559 20.7115 15.1173 20.9243C14.8333 21.154 14.8333 21.154 14.8332 21.1539L14.8322 21.1526L14.8293 21.1491C14.8268 21.1461 14.8232 21.1417 14.8186 21.1359C14.8092 21.1243 14.7954 21.1073 14.7776 21.0851C14.742 21.0406 14.6901 20.9754 14.6243 20.8913C14.4926 20.7231 14.305 20.4794 14.0801 20.1758C13.6307 19.5688 13.0309 18.7206 12.4304 17.7562C11.8306 16.7927 11.2262 15.707 10.7708 14.6258C10.3176 13.5498 10 12.4508 10 11.4685ZM15.1173 20.9243L14.8333 21.154L15.1164 21.5L15.4005 21.1549L15.1173 20.9243Z" fill="currentColor"/>
<path d="M20.25 11.467C20.2375 8.47503 17.9828 6 15.125 6C12.2685 6 10 8.47393 10 11.4685C10 12.4508 10.3176 13.5498 10.7708 14.6258C11.2262 15.707 11.8306 16.7927 12.4304 17.7562C13.0309 18.7206 13.6307 19.5688 14.0801 20.1758C14.305 20.4794 14.4926 20.7231 14.6243 20.8913C14.6901 20.9754 14.742 21.0406 14.7776 21.0851C14.7954 21.1073 14.8092 21.1243 14.8186 21.1359C14.8232 21.1417 14.8268 21.1461 14.8293 21.1491L14.8322 21.1526L14.8332 21.1539C14.8333 21.154 14.8333 21.154 15.1173 20.9243M20.25 11.467L19.8853 11.4685L20.25 11.4669C20.25 11.4669 20.25 11.467 20.25 11.467ZM20.25 11.467C20.2542 12.4502 19.9373 13.5498 19.4833 14.626C19.0271 15.7075 18.4201 16.7933 17.8173 17.7569C17.2139 18.7214 16.6106 19.5697 16.1584 20.1766C15.9322 20.4803 15.7434 20.724 15.6109 20.8922C15.5446 20.9763 15.4924 21.0415 15.4566 21.0859C15.4456 21.0995 15.4362 21.1111 15.4284 21.1208C15.4234 21.1269 15.4191 21.1323 15.4154 21.1368C15.4107 21.1426 15.407 21.147 15.4046 21.15L15.4006 21.1548C15.4006 21.1549 15.4005 21.1549 15.1173 20.9243M15.1173 20.9243C15.4013 20.6946 15.4013 20.6946 15.4013 20.6946L15.3984 20.6911C15.3963 20.6885 15.3931 20.6845 15.3888 20.6792C15.3802 20.6686 15.3672 20.6526 15.3502 20.6314C15.3162 20.589 15.2661 20.5259 15.202 20.444C15.1762 20.4112 15.1483 20.3753 15.1182 20.3365M15.1173 20.9243C14.8559 20.7115 14.8357 20.6951 14.8342 20.6938L14.834 20.6937L14.8341 20.6936L14.837 20.6902C14.8391 20.6876 14.8423 20.6836 14.8466 20.6783C14.8553 20.6677 14.8683 20.6517 14.8854 20.6305C14.9196 20.5881 14.9701 20.525 15.0346 20.4432C15.0603 20.4105 15.0882 20.3749 15.1182 20.3365M15.1173 20.9243L14.8333 21.154L15.1164 21.5L15.4005 21.1549L15.1173 20.9243ZM15.1182 20.3365C15.2387 20.1821 15.3925 19.9817 15.5701 19.7432C16.0142 19.1473 16.6055 18.3157 17.1957 17.3723C17.7865 16.4279 18.3722 15.3778 18.8082 14.3443C19.2464 13.3055 19.5215 12.3111 19.5178 11.4701L19.5178 11.47C19.5068 8.82201 17.5247 6.72802 15.125 6.72802C12.724 6.72802 10.7321 8.82312 10.7321 11.4685C10.7321 12.3104 11.0084 13.3055 11.4461 14.3445C11.8815 15.3783 12.4649 16.4285 13.0529 17.373C13.6403 18.3164 14.2283 19.1481 14.6697 19.7441C14.8459 19.9821 14.9986 20.1822 15.1182 20.3365Z" stroke="currentColor" stroke-miterlimit="10"/>
<path fill-rule="evenodd" clip-rule="evenodd" d="M7.44155 17H10.9622V17.7273H7.87563L4.24163 24.2727H25.7584L22.1244 17.7273H19.0378V17H22.5584L27 25H3L7.44155 17Z" fill="currentColor" stroke="currentColor" stroke-miterlimit="10"/>
</svg>
