<svg width="200" height="189" viewBox="0 0 200 189" fill="none" xmlns="http://www.w3.org/2000/svg">
<rect width="200" height="189" rx="94.5" fill="white"/>
<g clip-path="url(#clip0_0_1)">
<path d="M130.653 76.0231H162.528V81.9533H149.883V113.151H143.561V81.9533H130.653V76.0231Z" fill="black"/>
<path d="M78.2298 76.0231V81.9533H52.6795V91.4931H73.227V97.4232H52.6795V107.221H78.2298V113.151H46.3571V81.9533H46.3545V76.0231H78.2298Z" fill="black"/>
<path d="M94.1461 76.0386H85.8721L115.508 113.167H123.806L108.986 94.6154L123.782 76.0669L115.508 76.0798L104.844 89.4297L94.1461 76.0386Z" fill="black"/>
<path d="M102.637 102.559L98.493 97.3665L85.8484 113.195H94.1461L102.637 102.559Z" fill="black"/>
<path fill-rule="evenodd" clip-rule="evenodd" d="M46.5786 113.151L16.903 76.0076H9V113.136H15.3224V83.9437L38.6361 113.151H46.5786Z" fill="black"/>
<path d="M163.949 112.924C163.486 112.924 163.093 112.763 162.763 112.439C162.433 112.116 162.27 111.724 162.274 111.261C162.27 110.81 162.433 110.422 162.763 110.099C163.093 109.776 163.486 109.614 163.949 109.614C164.395 109.614 164.785 109.776 165.114 110.099C165.449 110.422 165.616 110.81 165.62 111.261C165.616 111.567 165.538 111.848 165.384 112.099C165.226 112.354 165.025 112.554 164.772 112.699C164.523 112.848 164.249 112.924 163.949 112.924Z" fill="black"/>
<path d="M174.74 97.2834H177.542V108.163C177.538 109.163 177.323 110.018 176.904 110.737C176.48 111.456 175.893 112.005 175.139 112.392C174.389 112.775 173.511 112.971 172.513 112.971C171.6 112.971 170.782 112.805 170.054 112.482C169.326 112.158 168.747 111.673 168.323 111.035C167.895 110.397 167.685 109.601 167.685 108.648H170.491C170.495 109.065 170.589 109.427 170.769 109.729C170.949 110.031 171.197 110.261 171.515 110.422C171.836 110.584 172.204 110.665 172.62 110.665C173.07 110.665 173.455 110.571 173.768 110.38C174.08 110.193 174.321 109.912 174.488 109.537C174.65 109.167 174.736 108.708 174.74 108.163V97.2834Z" fill="black"/>
<path d="M189.07 101.538C189.001 100.879 188.701 100.364 188.179 99.998C187.652 99.6278 186.971 99.4449 186.135 99.4449C185.549 99.4449 185.043 99.5342 184.623 99.7087C184.203 99.8874 183.878 100.126 183.655 100.428C183.432 100.73 183.321 101.074 183.312 101.462C183.312 101.785 183.389 102.066 183.539 102.3C183.689 102.538 183.89 102.738 184.152 102.9C184.409 103.066 184.696 103.202 185.009 103.313C185.326 103.423 185.643 103.517 185.96 103.593L187.42 103.955C188.007 104.091 188.577 104.274 189.121 104.508C189.665 104.738 190.158 105.032 190.59 105.385C191.023 105.738 191.366 106.163 191.619 106.661C191.871 107.159 192 107.742 192 108.414C192 109.32 191.769 110.116 191.301 110.805C190.835 111.49 190.162 112.027 189.28 112.414C188.401 112.797 187.339 112.992 186.088 112.992C184.88 112.992 183.826 112.805 182.94 112.431C182.049 112.061 181.354 111.516 180.853 110.801C180.352 110.086 180.082 109.214 180.044 108.189H182.82C182.858 108.725 183.03 109.172 183.321 109.533C183.616 109.891 184.002 110.154 184.473 110.333C184.949 110.508 185.48 110.597 186.067 110.597C186.68 110.597 187.219 110.503 187.686 110.32C188.149 110.137 188.513 109.882 188.774 109.55C189.04 109.223 189.173 108.835 189.177 108.393C189.173 107.989 189.053 107.653 188.821 107.389C188.586 107.125 188.26 106.904 187.844 106.725C187.425 106.546 186.936 106.385 186.379 106.244L184.606 105.793C183.325 105.466 182.31 104.968 181.569 104.3C180.824 103.632 180.455 102.747 180.455 101.636C180.455 100.726 180.703 99.9257 181.205 99.2407C181.701 98.5556 182.383 98.0238 183.244 97.6451C184.109 97.2622 185.086 97.0749 186.174 97.0749C187.279 97.0749 188.247 97.2622 189.083 97.6451C189.918 98.0238 190.574 98.5514 191.049 99.2236C191.524 99.8959 191.773 100.666 191.786 101.538H189.07Z" fill="black"/>
</g>
<defs>
<clipPath id="clip0_0_1">
<rect width="183" height="37" fill="white" transform="translate(9 76)"/>
</clipPath>
</defs>
</svg>
