<svg width="20" height="20" viewBox="0 0 20 20" fill="none" xmlns="http://www.w3.org/2000/svg">
<path fill-rule="evenodd" clip-rule="evenodd" d="M4.04285 1.39535C3.56951 1.39535 3.0861 1.58691 2.59538 2.06929L2.59009 2.07449L2.58469 2.07958C2.16107 2.47866 1.86778 2.91493 1.68414 3.38102L1.68342 3.38286L1.68268 3.38469C1.49431 3.85496 1.3973 4.37105 1.3973 4.92093C1.3973 5.77925 1.5954 6.70075 2.01284 7.69108C2.43605 8.68574 3.02269 9.70044 3.76114 10.7258C4.51187 11.7554 5.35399 12.7413 6.28818 13.6834C7.23175 14.6164 8.21952 15.4578 9.26078 16.2174C10.2846 16.9618 11.3102 17.5484 12.3279 17.9814C13.329 18.4074 14.2511 18.6047 15.0908 18.6047C15.6542 18.6047 16.168 18.5006 16.6386 18.3048L16.6405 18.304L16.6424 18.3033C17.1034 18.1146 17.5226 17.817 17.9175 17.3825C17.9175 17.3824 17.9176 17.3824 17.9176 17.3823C18.1388 17.1385 18.3061 16.8806 18.4367 16.6044C18.5517 16.3612 18.6027 16.1186 18.6027 15.8884C18.6027 15.7385 18.5728 15.5978 18.5085 15.4342C18.4648 15.3395 18.3896 15.2429 18.2423 15.1411L18.2389 15.1387L15.1581 12.9545C14.9537 12.8161 14.7849 12.7235 14.64 12.6643C14.5075 12.6102 14.4109 12.5953 14.3363 12.5953C14.2467 12.5953 14.1566 12.617 14.0382 12.689L14.0185 12.7009L13.9981 12.7116C13.8695 12.7786 13.7028 12.9029 13.4982 13.1073L13.4966 13.1089L12.7884 13.8068C12.5623 14.0317 12.2669 14.1674 11.9143 14.1674C11.7764 14.1674 11.6127 14.152 11.4361 14.0858L11.421 14.0802L11.4062 14.0738C11.3678 14.0574 11.332 14.041 11.3067 14.0294L11.2995 14.0261C11.2693 14.0123 11.259 14.0078 11.2543 14.0059L11.2197 13.9921L11.1869 13.9747C10.8092 13.7751 10.3658 13.4617 9.86078 13.0349L9.86033 13.0345L9.85988 13.0342C9.348 12.6002 8.85019 12.1313 8.34155 11.6328L8.33684 11.6282L8.33222 11.6235C7.83533 11.1178 7.37821 10.6136 6.95191 10.1217L6.94937 10.1187L6.94687 10.1158C6.52463 9.61747 6.20123 9.17592 6.00054 8.8085L5.97075 8.75397L5.95116 8.69527C5.95093 8.69469 5.94825 8.68752 5.93668 8.66021C5.93566 8.6578 5.93456 8.65522 5.9334 8.65248C5.92179 8.62514 5.90345 8.58196 5.88519 8.53334L5.87122 8.49613L5.86157 8.45758C5.83147 8.33735 5.81276 8.21493 5.81276 8.07442C5.81276 7.75886 5.92045 7.45766 6.16078 7.21468L6.86962 6.47889L6.8744 6.47411C7.06631 6.28247 7.19978 6.1087 7.28186 5.96368L7.28742 5.95386L7.2933 5.94422C7.3639 5.8284 7.38705 5.72933 7.38705 5.64651C7.38705 5.58675 7.36973 5.48579 7.31313 5.3539L7.31085 5.34858L7.30865 5.34323C7.24961 5.19911 7.15806 5.03301 7.0157 4.83556L7.01427 4.83359L4.84938 1.78647L4.84709 1.78317C4.75623 1.6521 4.64303 1.56237 4.50462 1.49858L4.49982 1.49637L4.49506 1.49409C4.3625 1.43054 4.20585 1.39535 4.04285 1.39535ZM1.62048 1.06966C2.32094 0.383239 3.13981 0 4.04285 0C4.3998 0 4.76303 0.0757062 5.09494 0.233864C5.43789 0.392838 5.75045 0.63623 5.99346 0.985349L8.15113 4.02231C8.34212 4.28747 8.49155 4.54691 8.59974 4.8096C8.70956 5.06704 8.78435 5.35481 8.78435 5.64651C8.78435 6.00638 8.67934 6.35034 8.49284 6.65987C8.33423 6.93751 8.11763 7.20526 7.86739 7.45583L7.22579 8.12182C7.23228 8.13715 7.241 8.15785 7.25043 8.18185C7.38985 8.42593 7.63672 8.76952 8.01109 9.21156C8.42107 9.68456 8.85587 10.1638 9.32503 10.6416C9.82055 11.1271 10.2899 11.5683 10.7638 11.9701C11.2118 12.3486 11.5609 12.5898 11.8146 12.7276C11.8351 12.7364 11.854 12.745 11.8694 12.752L12.5118 12.119C12.7666 11.8648 13.0397 11.6408 13.3313 11.4852C13.636 11.3041 13.9681 11.2 14.3363 11.2C14.6157 11.2 14.8917 11.2596 15.169 11.3729C15.4326 11.4806 15.6906 11.6287 15.9494 11.8045L15.9553 11.8084L19.0413 13.9964C19.3717 14.2256 19.6305 14.5158 19.7918 14.8818L19.7966 14.8927L19.801 14.9037C19.9197 15.2 20 15.521 20 15.8884C20 16.3279 19.9019 16.7737 19.7002 17.2002C19.5141 17.5937 19.2717 17.9682 18.9527 18.3197L18.9526 18.3198L18.9524 18.32C18.4349 18.8895 17.8487 19.3172 17.174 19.5937C16.5273 19.8625 15.8308 20 15.0908 20C14.0302 20 12.9216 19.7508 11.7802 19.2651C10.6554 18.7865 9.53839 18.1452 8.43834 17.3454L8.4379 17.3451L8.43747 17.3448C7.33741 16.5424 6.29552 15.6546 5.3025 14.6725L5.30011 14.6701L5.29773 14.6677C4.31439 13.6762 3.42503 12.6355 2.63035 11.5455L2.62916 11.5439L2.62799 11.5423C1.83955 10.4477 1.19711 9.34236 0.726313 8.23556L0.725881 8.23455L0.725453 8.23353C0.248901 7.1033 0 5.99722 0 4.92093C0 4.20636 0.126319 3.51378 0.384592 2.86829C0.64729 2.20235 1.05992 1.59911 1.62048 1.06966Z" fill="currentColor"/>
</svg>
