<svg width="30" height="30" viewBox="0 0 30 30" fill="none" xmlns="http://www.w3.org/2000/svg">
<path fill-rule="evenodd" clip-rule="evenodd" d="M9.04285 6.39535C8.56951 6.39535 8.0861 6.58691 7.59538 7.06929L7.59009 7.07449L7.58469 7.07958C7.16107 7.47866 6.86778 7.91493 6.68414 8.38102L6.68342 8.38286L6.68268 8.38469C6.49431 8.85496 6.3973 9.37105 6.3973 9.92093C6.3973 10.7792 6.5954 11.7008 7.01284 12.6911C7.43605 13.6857 8.02269 14.7004 8.76114 15.7258C9.51187 16.7554 10.354 17.7413 11.2882 18.6834C12.2318 19.6164 13.2195 20.4578 14.2608 21.2174C15.2846 21.9618 16.3102 22.5484 17.3279 22.9814C18.329 23.4074 19.2511 23.6047 20.0908 23.6047C20.6542 23.6047 21.168 23.5006 21.6386 23.3048L21.6405 23.304L21.6424 23.3033C22.1034 23.1146 22.5226 22.817 22.9175 22.3825C22.9175 22.3824 22.9176 22.3824 22.9176 22.3823C23.1388 22.1385 23.3061 21.8806 23.4367 21.6044C23.5517 21.3612 23.6027 21.1186 23.6027 20.8884C23.6027 20.7385 23.5728 20.5978 23.5085 20.4342C23.4648 20.3395 23.3896 20.2429 23.2423 20.1411L23.2389 20.1387L20.1581 17.9545C19.9537 17.8161 19.7849 17.7235 19.64 17.6643C19.5075 17.6102 19.4109 17.5953 19.3363 17.5953C19.2467 17.5953 19.1566 17.617 19.0382 17.689L19.0185 17.7009L18.9981 17.7116C18.8695 17.7786 18.7028 17.9029 18.4982 18.1073L18.4966 18.1089L17.7884 18.8068C17.5623 19.0317 17.2669 19.1674 16.9143 19.1674C16.7764 19.1674 16.6127 19.152 16.4361 19.0858L16.421 19.0802L16.4062 19.0738C16.3678 19.0574 16.332 19.041 16.3067 19.0294L16.2995 19.0261C16.2693 19.0123 16.259 19.0078 16.2543 19.0059L16.2197 18.9921L16.1869 18.9747C15.8092 18.7751 15.3658 18.4617 14.8608 18.0349L14.8603 18.0345L14.8599 18.0342C14.348 17.6002 13.8502 17.1313 13.3415 16.6328L13.3368 16.6282L13.3322 16.6235C12.8353 16.1178 12.3782 15.6136 11.9519 15.1217L11.9494 15.1187L11.9469 15.1158C11.5246 14.6175 11.2012 14.1759 11.0005 13.8085L10.9708 13.754L10.9512 13.6953C10.9509 13.6947 10.9482 13.6875 10.9367 13.6602C10.9357 13.6578 10.9346 13.6552 10.9334 13.6525C10.9218 13.6251 10.9035 13.582 10.8852 13.5333L10.8712 13.4961L10.8616 13.4576C10.8315 13.3374 10.8128 13.2149 10.8128 13.0744C10.8128 12.7589 10.9204 12.4577 11.1608 12.2147L11.8696 11.4789L11.8744 11.4741C12.0663 11.2825 12.1998 11.1087 12.2819 10.9637L12.2874 10.9539L12.2933 10.9442C12.3639 10.8284 12.3871 10.7293 12.3871 10.6465C12.3871 10.5867 12.3697 10.4858 12.3131 10.3539L12.3108 10.3486L12.3087 10.3432C12.2496 10.1991 12.1581 10.033 12.0157 9.83556L12.0143 9.83359L9.84938 6.78647L9.84709 6.78317C9.75623 6.6521 9.64303 6.56237 9.50462 6.49858L9.49982 6.49637L9.49506 6.49409C9.3625 6.43054 9.20585 6.39535 9.04285 6.39535ZM6.62048 6.06966C7.32094 5.38324 8.13981 5 9.04285 5C9.3998 5 9.76303 5.07571 10.0949 5.23386C10.4379 5.39284 10.7504 5.63623 10.9935 5.98535L13.1511 9.02231C13.3421 9.28747 13.4916 9.54691 13.5997 9.8096C13.7096 10.067 13.7844 10.3548 13.7844 10.6465C13.7844 11.0064 13.6793 11.3503 13.4928 11.6599C13.3342 11.9375 13.1176 12.2053 12.8674 12.4558L12.2258 13.1218C12.2323 13.1371 12.241 13.1578 12.2504 13.1819C12.3898 13.4259 12.6367 13.7695 13.0111 14.2116C13.4211 14.6846 13.8559 15.1638 14.325 15.6416C14.8205 16.1271 15.2899 16.5683 15.7638 16.9701C16.2118 17.3486 16.5609 17.5898 16.8146 17.7276C16.8351 17.7364 16.854 17.745 16.8694 17.752L17.5118 17.119C17.7666 16.8648 18.0397 16.6408 18.3313 16.4852C18.636 16.3041 18.9681 16.2 19.3363 16.2C19.6157 16.2 19.8917 16.2596 20.1691 16.3729C20.4326 16.4806 20.6906 16.6287 20.9494 16.8045L20.9553 16.8084L24.0413 18.9964C24.3717 19.2256 24.6305 19.5158 24.7918 19.8818L24.7966 19.8927L24.801 19.9037C24.9197 20.2 25 20.521 25 20.8884C25 21.3279 24.9019 21.7737 24.7002 22.2002C24.5141 22.5937 24.2717 22.9682 23.9527 23.3197L23.9526 23.3198L23.9524 23.32C23.4349 23.8895 22.8487 24.3172 22.174 24.5937C21.5273 24.8625 20.8308 25 20.0908 25C19.0302 25 17.9216 24.7508 16.7802 24.2651C15.6554 23.7865 14.5384 23.1452 13.4383 22.3454L13.4379 22.3451L13.4375 22.3448C12.3374 21.5424 11.2955 20.6546 10.3025 19.6725L10.3001 19.6701L10.2977 19.6677C9.31439 18.6762 8.42503 17.6355 7.63035 16.5455L7.62916 16.5439L7.62799 16.5423C6.83955 15.4477 6.19711 14.3424 5.72631 13.2356L5.72588 13.2345L5.72545 13.2335C5.2489 12.1033 5 10.9972 5 9.92093C5 9.20636 5.12632 8.51378 5.38459 7.86829C5.64729 7.20235 6.05992 6.59911 6.62048 6.06966Z" fill="currentColor"/>
</svg>
