<svg width="30" height="30" viewBox="0 0 30 30" fill="none" xmlns="http://www.w3.org/2000/svg">
<path d="M13.5787 20.5095L13.9509 19.5H12.875H7.625C6.51487 19.5 5.75 18.7056 5.75 17.875V8.375C5.75 7.5444 6.51487 6.75 7.625 6.75H23.375C24.4851 6.75 25.25 7.5444 25.25 8.375V17.875C25.25 18.7056 24.4851 19.5 23.375 19.5H18.9986H18.79L18.6113 19.6078L12.5669 23.2536L13.5787 20.5095Z" stroke="currentColor" stroke-width="1.5"/>
<path d="M11.051 11.6628C11.0278 11.4457 10.9301 11.2766 10.7577 11.1556C10.587 11.0347 10.365 10.9742 10.0915 10.9742C9.8993 10.9742 9.7344 11.0032 9.59686 11.0612C9.45931 11.1192 9.35408 11.1979 9.28116 11.2973C9.20824 11.3968 9.17096 11.5103 9.1693 11.6379C9.1693 11.744 9.19333 11.8359 9.24139 11.9138C9.2911 11.9917 9.35822 12.058 9.44274 12.1127C9.52726 12.1657 9.62089 12.2105 9.72363 12.2469C9.82638 12.2834 9.92995 12.314 10.0344 12.3389L10.5116 12.4582C10.7039 12.5029 10.8886 12.5634 11.066 12.6397C11.2449 12.7159 11.4049 12.812 11.5457 12.928C11.6882 13.044 11.8009 13.1841 11.8838 13.3481C11.9666 13.5122 12.0081 13.7044 12.0081 13.9248C12.0081 14.2231 11.9318 14.4858 11.7794 14.7128C11.6269 14.9382 11.4065 15.1147 11.1182 15.2423C10.8315 15.3682 10.4843 15.4312 10.0766 15.4312C9.68055 15.4312 9.33668 15.3699 9.04501 15.2473C8.755 15.1246 8.52797 14.9457 8.3639 14.7103C8.2015 14.475 8.11367 14.1883 8.10041 13.8503H9.00772C9.02098 14.0276 9.07567 14.1751 9.17179 14.2927C9.2679 14.4104 9.39302 14.4982 9.54714 14.5562C9.70292 14.6142 9.87692 14.6432 10.0692 14.6432C10.2697 14.6432 10.4453 14.6134 10.5961 14.5537C10.7486 14.4924 10.8679 14.4079 10.9541 14.3002C11.0403 14.1908 11.0842 14.0632 11.0858 13.9174C11.0842 13.7848 11.0452 13.6754 10.969 13.5892C10.8928 13.5014 10.7859 13.4285 10.6483 13.3705C10.5125 13.3108 10.3534 13.2578 10.1711 13.2114L9.59189 13.0623C9.17261 12.9545 8.84118 12.7913 8.59757 12.5726C8.35562 12.3521 8.23464 12.0596 8.23464 11.6951C8.23464 11.3951 8.31584 11.1324 8.47825 10.9071C8.64231 10.6817 8.8652 10.5069 9.14693 10.3826C9.42865 10.2566 9.74766 10.1936 10.104 10.1936C10.4652 10.1936 10.7818 10.2566 11.0535 10.3826C11.327 10.5069 11.5416 10.68 11.6974 10.9021C11.8531 11.1225 11.9335 11.3761 11.9385 11.6628H11.051ZM12.8303 10.2632H13.9588L15.4702 13.9522H15.5298L17.0412 10.2632H18.1697V15.3542H17.2848V11.8566H17.2376L15.8306 15.3392H15.1694L13.7624 11.8492H13.7152V15.3542H12.8303V10.2632ZM21.9407 11.6628C21.9175 11.4457 21.8197 11.2766 21.6474 11.1556C21.4767 11.0347 21.2546 10.9742 20.9812 10.9742C20.7889 10.9742 20.6241 11.0032 20.4865 11.0612C20.349 11.1192 20.2437 11.1979 20.1708 11.2973C20.0979 11.3968 20.0606 11.5103 20.0589 11.6379C20.0589 11.744 20.083 11.8359 20.131 11.9138C20.1808 11.9917 20.2479 12.058 20.3324 12.1127C20.4169 12.1657 20.5105 12.2105 20.6133 12.2469C20.716 12.2834 20.8196 12.314 20.924 12.3389L21.4013 12.4582C21.5935 12.5029 21.7783 12.5634 21.9556 12.6397C22.1346 12.7159 22.2945 12.812 22.4354 12.928C22.5779 13.044 22.6906 13.1841 22.7734 13.3481C22.8563 13.5122 22.8977 13.7044 22.8977 13.9248C22.8977 14.2231 22.8215 14.4858 22.669 14.7128C22.5166 14.9382 22.2962 15.1147 22.0078 15.2423C21.7211 15.3682 21.3739 15.4312 20.9663 15.4312C20.5702 15.4312 20.2263 15.3699 19.9347 15.2473C19.6446 15.1246 19.4176 14.9457 19.2536 14.7103C19.0911 14.475 19.0033 14.1883 18.9901 13.8503H19.8974C19.9106 14.0276 19.9653 14.1751 20.0614 14.2927C20.1576 14.4104 20.2827 14.4982 20.4368 14.5562C20.5926 14.6142 20.7666 14.6432 20.9588 14.6432C21.1593 14.6432 21.335 14.6134 21.4858 14.5537C21.6383 14.4924 21.7576 14.4079 21.8438 14.3002C21.9299 14.1908 21.9738 14.0632 21.9755 13.9174C21.9738 13.7848 21.9349 13.6754 21.8587 13.5892C21.7824 13.5014 21.6755 13.4285 21.538 13.3705C21.4021 13.3108 21.243 13.2578 21.0607 13.2114L20.4815 13.0623C20.0623 12.9545 19.7308 12.7913 19.4872 12.5726C19.2453 12.3521 19.1243 12.0596 19.1243 11.6951C19.1243 11.3951 19.2055 11.1324 19.3679 10.9071C19.532 10.6817 19.7549 10.5069 20.0366 10.3826C20.3183 10.2566 20.6373 10.1936 20.9936 10.1936C21.3549 10.1936 21.6714 10.2566 21.9432 10.3826C22.2166 10.5069 22.4312 10.68 22.587 10.9021C22.7428 11.1225 22.8232 11.3761 22.8281 11.6628H21.9407Z" fill="currentColor"/>
</svg>
