<svg width="21" height="19" viewBox="0 0 21 19" fill="none" xmlns="http://www.w3.org/2000/svg">
<path d="M8.57869 14.5095L8.95089 13.5H7.875H2.625C1.51487 13.5 0.75 12.7056 0.75 11.875V2.375C0.75 1.5444 1.51487 0.75 2.625 0.75H18.375C19.4851 0.75 20.25 1.5444 20.25 2.375V11.875C20.25 12.7056 19.4851 13.5 18.375 13.5H13.9986H13.79L13.6113 13.6078L7.56691 17.2536L8.57869 14.5095Z" stroke="currentColor" stroke-width="1.5"/>
<path d="M6.05105 5.66277C6.02785 5.44567 5.93007 5.27664 5.75772 5.15566C5.58703 5.03469 5.36497 4.9742 5.09153 4.9742C4.8993 4.9742 4.7344 5.0032 4.59686 5.0612C4.45931 5.1192 4.35408 5.19792 4.28116 5.29735C4.20824 5.39679 4.17096 5.5103 4.1693 5.63791C4.1693 5.74397 4.19333 5.83594 4.24139 5.91383C4.2911 5.99172 4.35822 6.05801 4.44274 6.11269C4.52726 6.16572 4.62089 6.21047 4.72363 6.24693C4.82638 6.28339 4.92995 6.31404 5.03436 6.3389L5.51163 6.45822C5.70386 6.50296 5.88864 6.56345 6.06596 6.63968C6.24494 6.71591 6.40486 6.81203 6.54572 6.92804C6.68824 7.04404 6.80093 7.18407 6.88379 7.34813C6.96665 7.5122 7.00808 7.70443 7.00808 7.92484C7.00808 8.22313 6.93185 8.4858 6.77939 8.71284C6.62692 8.93822 6.40652 9.11471 6.11816 9.24231C5.83147 9.36826 5.48429 9.43123 5.07662 9.43123C4.68055 9.43123 4.33668 9.36992 4.04501 9.24728C3.755 9.12465 3.52797 8.94567 3.3639 8.71035C3.2015 8.47503 3.11367 8.18833 3.10041 7.85027H4.00772C4.02098 8.02759 4.07567 8.17508 4.17179 8.29274C4.2679 8.4104 4.39302 8.49823 4.54714 8.55623C4.70292 8.61423 4.87692 8.64323 5.06916 8.64323C5.26968 8.64323 5.44534 8.6134 5.59615 8.55375C5.74861 8.49243 5.86793 8.40791 5.9541 8.30019C6.04028 8.19082 6.08419 8.06322 6.08585 7.91738C6.08419 7.78481 6.04525 7.67543 5.96902 7.58926C5.89279 7.50143 5.7859 7.42851 5.64835 7.37051C5.51246 7.31085 5.35337 7.25782 5.17108 7.21142L4.59189 7.06227C4.17261 6.95455 3.84118 6.79132 3.59757 6.57257C3.35562 6.35216 3.23464 6.05966 3.23464 5.69508C3.23464 5.39513 3.31584 5.13246 3.47825 4.90708C3.64231 4.6817 3.8652 4.50687 4.14693 4.38258C4.42865 4.25663 4.74766 4.19366 5.10396 4.19366C5.46523 4.19366 5.78175 4.25663 6.05353 4.38258C6.32697 4.50687 6.54158 4.68005 6.69735 4.90211C6.85313 5.12252 6.93351 5.37607 6.93848 5.66277H6.05105ZM7.83026 4.26326H8.95881L10.4702 7.95218H10.5298L12.0412 4.26326H13.1697V9.35417H12.2848V5.85666H12.2376L10.8306 9.33926H10.1694L8.76243 5.8492H8.7152V9.35417H7.83026V4.26326ZM16.9407 5.66277C16.9175 5.44567 16.8197 5.27664 16.6474 5.15566C16.4767 5.03469 16.2546 4.9742 15.9812 4.9742C15.7889 4.9742 15.6241 5.0032 15.4865 5.0612C15.349 5.1192 15.2437 5.19792 15.1708 5.29735C15.0979 5.39679 15.0606 5.5103 15.0589 5.63791C15.0589 5.74397 15.083 5.83594 15.131 5.91383C15.1808 5.99172 15.2479 6.05801 15.3324 6.11269C15.4169 6.16572 15.5105 6.21047 15.6133 6.24693C15.716 6.28339 15.8196 6.31404 15.924 6.3389L16.4013 6.45822C16.5935 6.50296 16.7783 6.56345 16.9556 6.63968C17.1346 6.71591 17.2945 6.81203 17.4354 6.92804C17.5779 7.04404 17.6906 7.18407 17.7734 7.34813C17.8563 7.5122 17.8977 7.70443 17.8977 7.92484C17.8977 8.22313 17.8215 8.4858 17.669 8.71284C17.5166 8.93822 17.2962 9.11471 17.0078 9.24231C16.7211 9.36826 16.3739 9.43123 15.9663 9.43123C15.5702 9.43123 15.2263 9.36992 14.9347 9.24728C14.6446 9.12465 14.4176 8.94567 14.2536 8.71035C14.0911 8.47503 14.0033 8.18833 13.9901 7.85027H14.8974C14.9106 8.02759 14.9653 8.17508 15.0614 8.29274C15.1576 8.4104 15.2827 8.49823 15.4368 8.55623C15.5926 8.61423 15.7666 8.64323 15.9588 8.64323C16.1593 8.64323 16.335 8.6134 16.4858 8.55375C16.6383 8.49243 16.7576 8.40791 16.8438 8.30019C16.9299 8.19082 16.9738 8.06322 16.9755 7.91738C16.9738 7.78481 16.9349 7.67543 16.8587 7.58926C16.7824 7.50143 16.6755 7.42851 16.538 7.37051C16.4021 7.31085 16.243 7.25782 16.0607 7.21142L15.4815 7.06227C15.0623 6.95455 14.7308 6.79132 14.4872 6.57257C14.2453 6.35216 14.1243 6.05966 14.1243 5.69508C14.1243 5.39513 14.2055 5.13246 14.3679 4.90708C14.532 4.6817 14.7549 4.50687 15.0366 4.38258C15.3183 4.25663 15.6373 4.19366 15.9936 4.19366C16.3549 4.19366 16.6714 4.25663 16.9432 4.38258C17.2166 4.50687 17.4312 4.68005 17.587 4.90211C17.7428 5.12252 17.8232 5.37607 17.8281 5.66277H16.9407Z" fill="currentColor"/>
</svg>
