<svg width="30" height="30" viewBox="0 0 30 30" fill="none" xmlns="http://www.w3.org/2000/svg">
<path d="M0 4.2C0 3.40435 0.31607 2.64129 0.878679 2.07868C1.44129 1.51607 2.20435 1.2 3 1.2H27C27.7956 1.2 28.5587 1.51607 29.1213 2.07868C29.6839 2.64129 30 3.40435 30 4.2V20.7C30 21.4956 29.6839 22.2587 29.1213 22.8213C28.5587 23.3839 27.7956 23.7 27 23.7H20.121L16.0605 27.7605C15.7792 28.0417 15.3977 28.1997 15 28.1997C14.6023 28.1997 14.2208 28.0417 13.9395 27.7605L9.879 23.7H3C2.20435 23.7 1.44129 23.3839 0.878679 22.8213C0.31607 22.2587 0 21.4956 0 20.7V4.2ZM27 4.2H3V20.7H10.5C10.8978 20.7001 11.2793 20.8582 11.5605 21.1395L15 24.579L18.4395 21.1395C18.7207 20.8582 19.1022 20.7001 19.5 20.7H27V4.2ZM6 9.45C6 9.05217 6.15803 8.67064 6.43934 8.38934C6.72064 8.10803 7.10218 7.95 7.5 7.95H22.5C22.8978 7.95 23.2794 8.10803 23.5607 8.38934C23.842 8.67064 24 9.05217 24 9.45C24 9.84782 23.842 10.2294 23.5607 10.5107C23.2794 10.792 22.8978 10.95 22.5 10.95H7.5C7.10218 10.95 6.72064 10.792 6.43934 10.5107C6.15803 10.2294 6 9.84782 6 9.45ZM6 15.45C6 15.0522 6.15803 14.6706 6.43934 14.3893C6.72064 14.108 7.10218 13.95 7.5 13.95H16.5C16.8978 13.95 17.2794 14.108 17.5607 14.3893C17.842 14.6706 18 15.0522 18 15.45C18 15.8478 17.842 16.2294 17.5607 16.5107C17.2794 16.792 16.8978 16.95 16.5 16.95H7.5C7.10218 16.95 6.72064 16.792 6.43934 16.5107C6.15803 16.2294 6 15.8478 6 15.45Z" fill="currentColor"/>
</svg>
