<svg width="24" height="22" viewBox="0 0 24 22" fill="none" xmlns="http://www.w3.org/2000/svg">
<path d="M0 2.44447C0 1.79616 0.252856 1.1744 0.702944 0.71597C1.15303 0.257542 1.76348 0 2.4 0H21.6C22.2365 0 22.847 0.257542 23.2971 0.71597C23.7471 1.1744 24 1.79616 24 2.44447V15.8891C24 16.5374 23.7471 17.1592 23.2971 17.6176C22.847 18.076 22.2365 18.3336 21.6 18.3336H16.0968L12.8484 21.6421C12.6234 21.8713 12.3182 22 12 22C11.6818 22 11.3766 21.8713 11.1516 21.6421L7.9032 18.3336H2.4C1.76348 18.3336 1.15303 18.076 0.702944 17.6176C0.252856 17.1592 0 16.5374 0 15.8891V2.44447ZM21.6 2.44447H2.4V15.8891H8.4C8.71823 15.8891 9.02341 16.018 9.2484 16.2472L12 19.0498L14.7516 16.2472C14.9766 16.018 15.2818 15.8891 15.6 15.8891H21.6V2.44447ZM4.8 6.7223C4.8 6.39814 4.92643 6.08726 5.15147 5.85805C5.37652 5.62884 5.68174 5.50007 6 5.50007H18C18.3183 5.50007 18.6235 5.62884 18.8485 5.85805C19.0736 6.08726 19.2 6.39814 19.2 6.7223C19.2 7.04646 19.0736 7.35734 18.8485 7.58655C18.6235 7.81577 18.3183 7.94454 18 7.94454H6C5.68174 7.94454 5.37652 7.81577 5.15147 7.58655C4.92643 7.35734 4.8 7.04646 4.8 6.7223ZM4.8 11.6112C4.8 11.2871 4.92643 10.9762 5.15147 10.747C5.37652 10.5178 5.68174 10.389 6 10.389H13.2C13.5183 10.389 13.8235 10.5178 14.0485 10.747C14.2736 10.9762 14.4 11.2871 14.4 11.6112C14.4 11.9354 14.2736 12.2463 14.0485 12.4755C13.8235 12.7047 13.5183 12.8335 13.2 12.8335H6C5.68174 12.8335 5.37652 12.7047 5.15147 12.4755C4.92643 12.2463 4.8 11.9354 4.8 11.6112Z" fill="currentColor"/>
</svg>
