<svg width="30" height="30" viewBox="0 0 30 30" fill="none" xmlns="http://www.w3.org/2000/svg">
<path fill-rule="evenodd" clip-rule="evenodd" d="M22.99 10.1734C24.3179 10.1734 25.5307 10.7188 26.4058 11.5938C27.2809 12.4687 27.8264 13.6814 27.8264 15.0091C27.8264 17.6689 25.6683 19.8266 23.0081 19.8266H17.6827C17.0825 19.8266 16.5959 20.3132 16.5959 20.9133C16.5959 21.5135 17.0825 22 17.6827 22H23.0081C26.8688 22 30 18.8692 30 15.0091C30 13.0767 29.2051 11.3191 27.9428 10.057C26.6804 8.79481 24.9226 8 22.99 8H17.6827C17.0825 8 16.5959 8.48652 16.5959 9.08668C16.5959 9.68683 17.0825 10.1734 17.6827 10.1734H22.99ZM14.4222 9.08668C14.4222 8.48652 13.9356 8 13.3354 8H7.99188C4.13119 8 1 11.1308 1 14.9909C1 16.9233 1.79492 18.6809 3.05724 19.943C4.31955 21.2052 6.0774 22 8.01 22H13.3354C13.9356 22 14.4222 21.5135 14.4222 20.9133C14.4222 20.3132 13.9356 19.8266 13.3354 19.8266H8.01C6.68213 19.8266 5.46933 19.2812 4.59423 18.4062C3.71914 17.5313 3.17364 16.3186 3.17364 14.9909C3.17364 12.3311 5.33165 10.1734 7.99188 10.1734H13.3354C13.9356 10.1734 14.4222 9.68683 14.4222 9.08668ZM21.6858 15.0091C21.6858 14.4089 21.1992 13.9224 20.599 13.9224H10.4191C9.81888 13.9224 9.33229 14.4089 9.33229 15.0091C9.33229 15.6092 9.81888 16.0957 10.4191 16.0957H20.599C21.1992 16.0957 21.6858 15.6092 21.6858 15.0091Z" fill="currentColor"/>
</svg>
