<svg width="29" height="14" viewBox="0 0 29 14" fill="none" xmlns="http://www.w3.org/2000/svg">
<path fill-rule="evenodd" clip-rule="evenodd" d="M21.99 2.17335C23.3179 2.17335 24.5307 2.71877 25.4058 3.59375C26.2809 4.46873 26.8264 5.68137 26.8264 7.00906C26.8264 9.66893 24.6683 11.8266 22.0081 11.8266H16.6827C16.0825 11.8266 15.5959 12.3132 15.5959 12.9133C15.5959 13.5135 16.0825 14 16.6827 14H22.0081C25.8688 14 29 10.8692 29 7.00906C29 5.07672 28.2051 3.31911 26.9428 2.05696C25.6804 0.794812 23.9226 0 21.99 0H16.6827C16.0825 0 15.5959 0.486521 15.5959 1.08668C15.5959 1.68683 16.0825 2.17335 16.6827 2.17335H21.99ZM13.4222 1.08668C13.4222 0.486521 12.9356 0 12.3354 0H6.99188C3.13119 0 4.01101e-07 3.13076 4.01101e-07 6.99094C4.01101e-07 8.92328 0.794919 10.6809 2.05724 11.943C3.31955 13.2052 5.0774 14 7.01 14H12.3354C12.9356 14 13.4222 13.5135 13.4222 12.9133C13.4222 12.3132 12.9356 11.8266 12.3354 11.8266H7.01C5.68213 11.8266 4.46933 11.2812 3.59423 10.4062C2.71914 9.53127 2.17364 8.31863 2.17364 6.99094C2.17364 4.33107 4.33165 2.17335 6.99188 2.17335H12.3354C12.9356 2.17335 13.4222 1.68683 13.4222 1.08668ZM20.6858 7.00906C20.6858 6.4089 20.1992 5.92238 19.599 5.92238H9.41911C8.81888 5.92238 8.33229 6.4089 8.33229 7.00906C8.33229 7.60921 8.81888 8.09573 9.41911 8.09573H19.599C20.1992 8.09573 20.6858 7.60921 20.6858 7.00906Z" fill="currentColor"/>
</svg>
