<svg width="30" height="30" viewBox="0 0 30 30" fill="none" xmlns="http://www.w3.org/2000/svg">
<path d="M14.8638 6.52942C14.8539 6.52942 14.8433 6.52942 14.832 6.52942C10.4626 6.52942 6.48847 8.22354 3.53082 10.9899L3.54 10.9814L3 11.4847L5.72612 14.1854L6.23435 13.7195C8.49388 11.6358 11.5242 10.3574 14.8532 10.3574C18.1821 10.3574 21.2125 11.6351 23.4805 13.7273L23.472 13.7195L23.9802 14.1854L26.7064 11.4847L26.1664 10.9814C23.2235 8.22354 19.2551 6.52942 14.8906 6.52942C14.8807 6.52942 14.8715 6.52942 14.8616 6.52942L14.8638 6.52942Z" fill="currentColor"/>
<path d="M22.3447 15.0212C20.3802 13.2346 17.7579 12.1412 14.88 12.1412C14.8786 12.1412 14.8765 12.1412 14.8751 12.1412H14.4042L14.3993 12.1518C11.6838 12.264 9.23717 13.3334 7.37011 15.0289L7.37929 15.0205L6.82376 15.5238L9.57176 18.2449L10.08 17.8002C11.3442 16.6666 13.0242 15.9741 14.8659 15.9741C16.7075 15.9741 18.3875 16.6673 19.6588 17.8066L19.6518 17.8009L20.16 18.2456L22.908 15.5252L22.3447 15.0212Z" fill="currentColor"/>
<path d="M14.8694 23.4706L18.7341 19.6482L18.12 19.1449C17.2814 18.4828 16.2085 18.0826 15.0431 18.0826C14.9802 18.0826 14.9174 18.084 14.8553 18.0861H14.8645C14.8503 18.0861 14.8341 18.0861 14.8179 18.0861C13.6094 18.0861 12.4934 18.4835 11.5941 19.1555L11.6082 19.1456L10.9998 19.6489L11.5609 20.2045L14.3562 22.968L14.8694 23.4706Z" fill="currentColor"/>
</svg>
