<svg width="24" height="24" viewBox="0 0 24 24" fill="none" xmlns="http://www.w3.org/2000/svg">
<path d="M11.8638 3.52942C11.8539 3.52942 11.8433 3.52942 11.832 3.52942C7.46259 3.52942 3.48847 5.22354 0.530823 7.98989L0.54 7.98142L0 8.48471L2.72612 11.1854L3.23435 10.7195C5.49388 8.63577 8.52423 7.35742 11.8532 7.35742C15.1821 7.35742 18.2125 8.63507 20.4805 10.7273L20.472 10.7195L20.9802 11.1854L23.7064 8.48471L23.1664 7.98142C20.2235 5.22354 16.2551 3.52942 11.8906 3.52942C11.8807 3.52942 11.8715 3.52942 11.8616 3.52942L11.8638 3.52942Z" fill="currentColor"/>
<path d="M19.3447 12.0212C17.3802 10.2346 14.7579 9.14117 11.88 9.14117C11.8786 9.14117 11.8765 9.14117 11.8751 9.14117H11.4042L11.3993 9.15176C8.68376 9.264 6.23717 10.3334 4.37011 12.0289L4.37929 12.0205L3.82376 12.5238L6.57176 15.2449L7.08 14.8002C8.34423 13.6666 10.0242 12.9741 11.8659 12.9741C13.7075 12.9741 15.3875 13.6673 16.6588 14.8066L16.6518 14.8009L17.16 15.2456L19.908 12.5252L19.3447 12.0212Z" fill="currentColor"/>
<path d="M11.8694 20.4706L15.7341 16.6482L15.12 16.1449C14.2814 15.4828 13.2085 15.0826 12.0431 15.0826C11.9802 15.0826 11.9174 15.084 11.8553 15.0861H11.8645C11.8503 15.0861 11.8341 15.0861 11.8179 15.0861C10.6094 15.0861 9.4934 15.4835 8.59411 16.1555L8.60823 16.1457L7.99976 16.6489L8.56093 17.2045L11.3562 19.968L11.8694 20.4706Z" fill="currentColor"/>
</svg>
