<svg xmlns="http://www.w3.org/2000/svg" viewBox="0 0 70 70"><g fill="currentColor"><path d="M11.135 1.33c.493-.805 6.848-.615 7.5-.214 1.37.844 1.86 2.185 1.22 8.004-3.043 1.684-8.964 1.463-8.964 1.463s-.726-7.665.244-9.252zm9.636.151c.44-.785 5.975-1.162 6.635-.987 2.006.534 2.58 1.09 1.18 7.149-1.316 2.984-7.71 2.8-7.951 2.28-1.073-2.313-.73-6.894.136-8.442zm-9.654.09c.793.472.323 6.156.024 6.828-.909 2.041-1.613 2.614-8.055 1.013C.013 7.98 1.13.57 1.741.336 4.456-.7 9.553.641 11.117 1.571zm8.708 8.984c.796.352.509 5.965.235 6.662-.832 2.119-1.508 2.775-7.905 2.1-3.073-.974-2.068-7.536-1.472-7.848 2.643-1.385 7.572-1.606 9.142-.914zM1.983 20.013c.492-.79 6.847-.604 7.499-.21 1.37.827 1.86 2.142 1.221 7.848-3.043 1.652-8.964 1.435-8.964 1.435s-.727-7.517.244-9.073zm17.946.946c.727.455.296 5.934.022 6.58-.833 1.97-1.477 2.521-7.38.978-2.816-1.38-1.793-8.524-1.233-8.749 2.488-.998 7.158.294 8.59 1.19zm9.337-1.391c.748.363.478 6.17.221 6.89-.78 2.191-1.415 2.87-7.422 2.172-2.885-1.008-1.942-7.794-1.383-8.117 2.483-1.433 7.11-1.661 8.584-.945zm-8.978-8.835c.492-.79 6.847-.604 7.499-.21 1.37.827 1.86 2.143 1.221 7.848-3.043 1.652-8.964 1.436-8.964 1.436s-.727-7.517.244-9.074zm-8.781 1.514c.6.543-1.496 5.609-1.97 6.172-1.442 1.712-2.263 2.126-7.789-.264-2.44-1.744.76-8.276 1.398-8.397 2.828-.538 7.178 1.42 8.361 2.489z" transform="translate(20 20)"></path></g></svg>